<svg width="88" height="66" viewBox="0 0 88 66" fill="none" xmlns="http://www.w3.org/2000/svg">
<path d="M0.693787 44.0597C4.27538 62.0726 29.4964 66.1877 41.6591 65.9935C47.8523 65.9935 63.2833 64.7901 75.4609 59.9763C90.6829 53.959 92.2498 38.2365 79.0425 22.1258C65.8352 6.01507 41.6591 -3.10787 28.0041 0.968334C14.349 5.04455 -3.783 21.5435 0.693787 44.0597Z" fill="#F1D4A4"/>
<path d="M58.9932 26.6688C58.9914 26.6328 58.9909 26.5968 58.9859 26.5613C58.9836 26.5402 58.9796 26.5197 58.9764 26.4991C58.9705 26.4645 58.9614 26.4318 58.9532 26.3986C58.9446 26.3668 58.9382 26.3345 58.9273 26.3027C58.9205 26.2822 58.9132 26.2621 58.905 26.2424C58.8928 26.2092 58.8764 26.1779 58.8614 26.1457C58.8482 26.1171 58.836 26.0886 58.8205 26.061C58.811 26.0428 58.7996 26.025 58.7892 26.0077C58.7683 25.9746 58.7447 25.9446 58.7219 25.9138C58.7079 25.8946 58.6979 25.874 58.6824 25.8553C58.6783 25.8507 58.6733 25.8474 58.6697 25.8427C58.6579 25.8287 58.6447 25.8156 58.6324 25.802C58.6047 25.7726 58.5743 25.7464 58.5443 25.7193C58.522 25.6992 58.5016 25.6763 58.4784 25.6576C58.4661 25.6478 58.453 25.6398 58.4398 25.6309C58.408 25.6071 58.3734 25.5879 58.3389 25.5673C58.3121 25.551 58.2871 25.5318 58.2594 25.5178C58.2458 25.5112 58.2317 25.5066 58.2185 25.5C58.1822 25.4832 58.1445 25.4706 58.1063 25.4575C58.0772 25.4472 58.0481 25.4332 58.0186 25.4248C58.0036 25.421 57.9882 25.4182 57.9727 25.4149C57.9359 25.4061 57.8982 25.4018 57.86 25.3962C57.8269 25.3911 57.7937 25.3836 57.7596 25.3817C57.7519 25.3813 57.746 25.3789 57.7387 25.3785L50.3441 25.0012C49.6267 24.9703 48.9897 25.5444 48.9529 26.2971C48.9165 27.0503 49.4804 27.6913 50.2123 27.7287L54.2697 27.9358L43.572 37.329L34.5176 31.4103C34.0074 31.077 33.3408 31.1406 32.8987 31.5669L21.419 42.6386C20.8847 43.1547 20.8579 44.0182 21.3586 44.5685C21.6194 44.8546 21.9733 45 22.3264 45C22.6522 45 22.9784 44.878 23.2342 44.6311L33.9628 34.2827L42.9763 40.1739C43.4679 40.4946 44.1049 40.4492 44.5493 40.0598L56.3466 29.7016V34.1467C56.3466 34.9008 56.9404 35.5118 57.6733 35.5118C58.4057 35.5118 59 34.9008 59 34.1467V26.7417C59 26.7165 58.9945 26.6936 58.9932 26.6688Z" fill="#59432D"/>
</svg>
