<svg width="88" height="66" viewBox="0 0 88 66" fill="none" xmlns="http://www.w3.org/2000/svg">
<path d="M0.693863 44.0597C4.27553 62.0726 29.4964 66.1877 41.6591 65.9935C47.8524 65.9935 63.2834 64.7901 75.4609 59.9763C90.6828 53.959 92.2499 38.2365 79.0425 22.1258C65.8353 6.01507 41.6591 -3.10789 28.004 0.968346C14.349 5.04451 -3.78321 21.5435 0.693863 44.0597Z" fill="#F1D4A4"/>
<path d="M52.5684 45.4833C57.8202 40.1796 56.9483 30.7379 50.6082 24.4026C47.5583 21.3527 43.7019 19.4604 39.7516 19.0735C35.7187 18.6778 32.0683 19.89 29.472 22.4849C29.4601 22.4968 29.4497 22.5086 29.4379 22.5205C29.4349 22.5235 29.4334 22.5264 29.4305 22.5279C24.1802 27.8332 25.0521 37.2748 31.3906 43.6101C34.9477 47.1653 39.4801 49 43.712 49C47.0451 49 50.1929 47.8619 52.5269 45.5278C52.5388 45.5159 52.5491 45.5041 52.561 45.4922C52.564 45.4893 52.5669 45.4863 52.5684 45.4833ZM38.2793 21.2238C38.6915 21.2238 39.1096 21.2445 39.5352 21.286C42.9751 21.6224 46.3497 23.2881 49.0363 25.9733C53.9173 30.8533 55.1346 37.7713 52.2286 42.358C51.6815 40.7412 50.7711 38.9629 48.7754 36.9697C45.8707 34.0665 43.5311 33.4871 41.2655 32.927C39.206 32.4172 37.2621 31.9355 34.7948 29.471C32.5826 27.26 31.9673 25.4682 31.4973 23.6365C33.2988 22.0612 35.6549 21.2238 38.2793 21.2238ZM32.9622 42.0393C28.0828 37.1624 26.864 30.2459 29.7684 25.6591C30.3156 27.2908 31.2111 29.0321 33.2232 31.0429C36.1263 33.9446 38.5729 34.5507 40.7315 35.0856C42.791 35.5954 44.7349 36.0771 47.2022 38.5416C49.4158 40.7541 50.0297 42.5459 50.5012 44.3776C45.9907 48.3213 38.2702 47.343 32.9637 42.039L32.9622 42.0393Z" fill="#59432D"/>
</svg>
