<svg width="88" height="66" viewBox="0 0 88 66" fill="none" xmlns="http://www.w3.org/2000/svg">
<path d="M87.3061 21.9403C83.7245 3.92738 58.5036 -0.187653 46.3409 0.006452C40.1476 0.006452 24.7166 1.20991 12.5391 6.0237C-2.68276 12.041 -4.2499 27.7635 8.95747 43.8742C22.1647 59.9849 46.3409 69.1079 59.996 65.0317C73.651 60.9555 91.7832 44.4565 87.3061 21.9403Z" fill="#F1D4A4"/>
<path d="M47.2257 39.0478C52.0965 39.0478 56.0451 35.0992 56.0451 30.2284C56.0451 25.3575 52.0965 21.4089 47.2257 21.4089C42.3548 21.4089 38.4062 25.3575 38.4062 30.2284C38.4062 35.0992 42.3548 39.0478 47.2257 39.0478Z" stroke="#59432D" stroke-width="2.5"/>
<path d="M46.8926 17.9893V15" stroke="#59432D" stroke-width="2.5" stroke-linecap="round"/>
<path d="M46.8926 45V42.0107" stroke="#59432D" stroke-width="2.5" stroke-linecap="round"/>
<path d="M34.9893 30.5649H32" stroke="#59432D" stroke-width="2.5" stroke-linecap="round"/>
<path d="M61.9981 30.5649H59.0088" stroke="#59432D" stroke-width="2.5" stroke-linecap="round"/>
<path d="M38.6539 21.8112L36.5402 19.6975" stroke="#59432D" stroke-width="2.5" stroke-linecap="round"/>
<path d="M57.7485 40.9106L55.6348 38.7969" stroke="#59432D" stroke-width="2.5" stroke-linecap="round"/>
<path d="M39.1273 39.1206L37.0136 41.2343" stroke="#59432D" stroke-width="2.5" stroke-linecap="round"/>
<path d="M58.2221 20.0215L56.1084 22.1352" stroke="#59432D" stroke-width="2.5" stroke-linecap="round"/>
</svg>
