<svg width="146" height="154" viewBox="0 0 146 154" fill="none" xmlns="http://www.w3.org/2000/svg">
<g clip-path="url(#clip0_9_72837)">
<g clip-path="url(#clip1_9_72837)">
<path d="M145.649 66.1421C145.211 62.2522 144.189 58.4647 143.021 54.7357C141.649 50.3926 139.94 46.1664 137.984 42.0572C135.166 36.0177 131.414 30.4607 127.151 25.3571C124.391 22.0815 121.252 19.1422 117.938 16.4222C115.164 14.097 112.157 12.0644 109.032 10.2657C105.061 7.92593 100.871 5.95176 96.5053 4.44554C89.1469 1.78407 81.3359 0.204729 73.4811 0C66.6629 0 59.8885 1.243 53.3623 3.12943C48.9385 4.54791 44.5585 6.14187 40.4559 8.33539C36.4263 10.4558 32.4989 12.8102 28.9657 15.6764C25.3157 18.5865 21.8555 21.7598 18.8479 25.3425C15.3731 29.5102 12.2341 33.9704 9.66454 38.7523C5.95614 45.8447 3.03614 53.3757 1.19654 61.1701C-0.511659 69.0083 -0.511659 77.3437 1.98494 85.021C2.81714 87.3607 3.92674 89.642 5.44514 91.6308C7.00734 93.5319 8.80314 95.3306 11.0515 96.3688C15.3001 98.6355 20.3225 98.8256 24.9945 98.1529C31.1849 97.1292 37.3753 96.1202 43.5803 95.1989C41.2151 104.924 38.9667 114.707 37.6965 124.636C37.1125 129.096 37.1125 133.732 38.6601 138.002C40.1785 142.945 43.8723 147.039 48.3837 149.481C52.9097 151.967 58.0343 153.064 63.1297 153.605C68.6777 154.117 74.2695 154.029 79.8321 153.854C84.6063 153.547 89.4097 152.874 93.9065 151.163C97.7609 149.759 101.367 147.493 103.951 144.261C106.244 141.629 107.47 138.251 108.215 134.887C108.857 131.889 108.74 128.789 108.463 125.747C107.222 115.423 104.9 105.275 102.448 95.1843C107.295 95.9009 112.142 96.6759 116.989 97.4656C119.661 97.8897 122.318 98.46 125.019 98.4746C128.319 98.5039 131.691 98.0505 134.641 96.5151C137.137 95.4183 139.108 93.4734 140.773 91.353C142.7 88.6769 144.028 85.5767 144.788 82.3595C146.131 77.0658 146.277 71.5381 145.664 66.1274L145.649 66.1421Z" fill="#E87722"/>
</g>
</g>
<defs>
<clipPath id="clip0_9_72837">
<rect width="146" height="154" fill="white"/>
</clipPath>
<clipPath id="clip1_9_72837">
<rect width="146" height="154" fill="white"/>
</clipPath>
</defs>
</svg>
