<svg width="72" height="72" viewBox="0 0 72 72" fill="none" xmlns="http://www.w3.org/2000/svg">
<path d="M36 71C55.33 71 71 55.33 71 36C71 16.67 55.33 1 36 1C16.67 1 1 16.67 1 36C1 55.33 16.67 71 36 71Z" stroke="#59432D" stroke-width="2"/>
<path fill-rule="evenodd" clip-rule="evenodd" d="M38.8257 50.103C38.6337 50.5726 38.9217 51.2782 39.0256 51.7509C39.1258 52.2094 39.7386 52.6003 40.0387 52.9303C40.1239 53.0241 40.2254 53.1574 40.3219 53.3094C40.5518 53.6713 40.2647 53.7796 39.9491 53.4894C39.6844 53.2458 39.3489 53.4985 39.3824 53.8566C39.4419 54.4923 39.4515 55.138 39.2439 55.7439C39.0272 56.3761 38.5988 55.9615 38.6688 55.2969C38.6913 55.0825 38.6975 54.8612 38.6893 54.6327C38.671 54.1139 38.5797 53.5976 38.4223 53.1024C38.2501 52.5623 37.5958 52.4101 37.2498 52.8592C37.2262 52.8899 37.2022 52.9204 37.1778 52.9508C36.7928 53.4303 36.5037 53.9722 36.3117 54.5582C36.1081 55.1794 35.9906 55.7964 35.6863 56.384C35.6816 56.3931 35.6768 56.4023 35.672 56.4116C35.3701 56.9944 34.9466 57.2195 35.1763 56.6047C35.3906 56.0311 34.8819 55.3538 34.3394 55.6378C34.3087 55.6539 34.2778 55.6692 34.2467 55.6836C33.7787 55.9003 33.2478 55.9921 32.7551 56.1358C32.2038 56.2958 31.6471 56.481 31.1293 56.7308C30.7576 56.9097 30.4871 56.7042 30.7966 56.4315C30.9149 56.3272 31.0402 56.2316 31.1702 56.1458C31.837 55.7046 32.635 55.5404 33.3669 55.2413C34.1607 54.9171 34.8096 54.5199 35.3873 53.8825C35.9133 53.3019 35.253 52.6251 34.4835 52.7725C34.1738 52.8318 33.8564 52.8739 33.5285 52.9041C32.934 52.9586 32.3412 53.0242 31.7562 53.1454C31.2348 53.2539 31.0177 52.9015 31.5173 52.7169C32.2781 52.436 33.147 52.3206 33.8448 52.1208C34.4885 51.9361 35.1176 51.6964 35.7104 51.3837C36.3421 51.0495 36.8636 50.5673 37.3683 50.0684C37.8105 49.6319 37.9506 48.824 38.0991 48.2385C38.2864 47.4951 38.405 46.7328 38.4637 45.9678C38.5188 45.2428 38.5157 44.5141 38.4496 43.7906C38.399 43.2334 37.8092 43.2531 37.6448 43.788C37.5356 44.1453 37.4013 44.4952 37.2345 44.8294C37.0488 45.2013 36.8242 45.5056 36.7424 45.9212C36.5913 46.691 36.8001 47.798 36.6461 48.6985C36.5416 49.3092 36.0837 48.9918 36.0787 48.3723C36.0727 47.6712 35.1129 47.413 34.5506 47.8316C34.2087 48.086 33.857 48.3301 33.5101 48.591C33.1586 48.8544 32.8391 49.1592 32.5621 49.5002C32.4236 49.6713 32.2961 49.8507 32.1801 50.0375C32.0442 50.2565 31.8873 50.2117 31.9339 49.9581C32.0929 49.0938 32.8807 48.3675 33.4718 47.8098C33.8763 47.429 34.3002 47.0691 34.6633 46.6467C34.6785 46.629 34.6938 46.6112 34.7092 46.5931C35.1784 46.0431 34.603 45.3849 33.9152 45.6076C33.8618 45.6249 33.8081 45.6441 33.7541 45.6657C33.6583 45.7038 33.5691 45.7414 33.4858 45.7785C32.8521 46.0604 32.5282 45.8978 33.0741 45.47C33.5279 45.1132 33.9891 44.938 34.5059 44.6846C35.0184 44.4328 35.5336 44.1982 35.9303 43.7743C36.3258 43.3515 36.586 42.8268 36.7938 42.2917C37.2308 41.1653 37.5089 39.9634 37.1584 38.773C36.9884 38.1917 36.6899 37.6303 36.447 37.0763C36.2126 36.5417 35.5488 36.6409 35.3318 37.1828C35.2749 37.3249 35.2098 37.4652 35.1349 37.6036C34.7451 38.3234 34.1439 38.8873 33.5988 39.487C33.0715 40.0662 32.5511 40.7251 32.3071 41.4817C32.2994 41.5056 32.2919 41.5297 32.2847 41.5538C32.0804 42.2348 31.5467 42.3345 31.6747 41.6352C31.7117 41.4331 31.7634 41.2325 31.8258 41.0364C31.9444 40.664 31.6468 40.3576 31.2704 40.4628C30.9525 40.5515 30.7038 40.6711 30.4132 40.8311C29.8733 41.1291 29.3545 41.4439 28.9484 41.9171C28.4538 42.4939 28.2359 43.3433 27.8368 44.0178C27.5878 44.4386 27.2264 44.1663 27.353 43.6941C27.4694 43.2581 27.5528 42.8148 27.7197 42.3945C27.8597 42.0418 28.0423 41.7367 28.2598 41.4617C28.6491 40.9695 28.5367 40.245 27.9589 40.0001C27.4899 39.8002 27.0335 39.5515 26.5351 39.4335C26.034 39.3144 25.5178 39.3396 25.0283 39.4991C24.8022 39.5736 24.5834 39.6675 24.373 39.7787C24.1213 39.9114 23.9444 39.7348 24.1372 39.5255C24.5059 39.1253 25.0221 38.8466 25.5393 38.7284C26.4207 38.5264 27.2648 38.8207 28.0617 39.1764C28.9605 39.5778 29.8707 39.9817 30.8754 39.7666C31.8213 39.5636 32.6513 38.9813 33.3548 38.3407C34.0027 37.751 34.4282 36.9221 34.6139 36.0711C34.7997 35.2196 34.914 34.1583 34.6659 33.3073C34.5384 32.8713 34.2703 32.4511 34.073 32.0429C33.8595 31.5996 33.6481 31.1552 33.4466 30.7062C33.3596 30.5132 33.1811 30.1044 32.9882 29.6474C32.7701 29.1309 31.9444 29.1598 31.687 29.6579C31.4021 30.2109 31.0359 30.7565 30.8937 31.3682C30.7421 32.0214 30.8822 32.6442 31.0275 33.2826C31.1175 33.6772 30.4983 33.8172 30.2999 33.4644C30.2522 33.3795 30.212 33.3032 30.1829 33.2365C30.0181 32.8582 29.8508 32.4763 29.7826 32.0671C29.698 31.5593 29.1687 31.2089 28.7439 31.4997C28.4582 31.6952 28.174 31.8929 27.8881 32.088C27.621 32.2706 27.3673 32.4716 27.1555 32.7C26.853 33.0262 26.5052 33.0039 26.6751 32.5927C26.8603 32.1446 26.6548 31.5521 26.1709 31.5211C25.9695 31.5082 25.7683 31.5034 25.5681 31.5136C24.9445 31.5448 24.6974 31.1465 25.3135 31.0448C25.6743 30.9853 26.0441 30.9735 26.374 30.9784C27.417 30.9937 28.4112 30.6967 29.3141 30.1768C30.1414 29.7004 30.856 29.0488 31.2489 28.1653C31.6707 27.2194 31.6413 26.0789 31.6214 25.0616C31.5999 23.941 31.5905 22.8954 31.847 21.7947C32.0715 20.8288 32.4231 19.8939 32.8858 19.0172C33.8375 17.2177 35.2991 15.7755 37.1369 14.8831C37.6627 14.6281 38.3063 14.337 38.9312 14.2016C39.2471 14.1332 39.5217 14.4804 39.2963 14.7121C39.1541 14.8579 38.8829 14.9099 38.6998 14.987C38.2371 15.1821 37.7822 15.3983 37.3457 15.6459C36.4811 16.1365 35.6774 16.7461 35.0064 17.4816C33.6344 18.9847 32.8853 21.1814 32.7751 23.1902C32.7195 24.209 32.753 25.2688 33.1969 26.2016C33.5914 27.0316 34.3149 27.5179 35.1328 27.8742C35.6139 28.0835 36.0861 28.1548 36.6133 28.0903C37.1527 28.0237 37.6957 27.6995 38.1705 27.4513C38.358 27.3532 38.6046 27.256 38.8744 27.1835C39.6303 26.9802 39.4544 27.5097 38.7743 27.8972C38.4777 28.0667 38.1898 28.2144 37.8945 28.3413C37.4992 28.5111 37.3888 29.1049 37.6743 29.4268C37.7532 29.5158 37.8283 29.6079 37.8992 29.7032C38.1339 30.0186 37.8535 30.1976 37.543 29.9564C37.17 29.6663 36.7618 29.4733 36.3248 29.3001C36.1098 29.2149 35.908 29.1462 35.7104 29.0801C35.0807 28.8696 34.3947 29.5017 34.6722 30.1049C34.9261 30.6579 35.4318 31.1096 35.8809 31.5046C36.8494 32.3567 37.9595 33.1824 39.2533 33.439C40.5612 33.6971 41.9688 33.598 43.1855 33.0366C43.6092 32.8415 44.2763 32.3384 44.9158 32.0786C45.4971 31.8425 45.325 32.4087 44.8286 32.7923C44.4235 33.1053 44.5597 33.7557 44.9927 34.0288C45.403 34.2875 45.7647 34.6107 46.0584 35.0328C46.3223 35.4121 46.4933 35.8497 46.6344 36.2909C46.7179 36.5528 46.4209 36.7619 46.2745 36.5293C45.978 36.0578 45.7205 35.5549 45.2824 35.1782C44.806 34.7684 44.2239 34.5257 43.6141 34.4196C43.1443 34.3379 42.8521 34.9583 42.9772 35.4184C43.1057 35.8843 43.1582 36.3596 43.2479 36.8329C43.395 37.6192 42.9368 38.0613 42.637 37.3195C42.626 37.2923 42.6154 37.2654 42.6052 37.2389C42.4295 36.783 42.3602 36.3135 42.2285 35.8476C42.1099 35.4268 41.8649 35.0601 41.579 34.7359C41.2579 34.3697 40.7118 34.5129 40.279 34.4893C39.7648 34.461 39.2544 34.3844 38.7528 34.2695C37.8633 34.0652 36.9543 34.98 37.5256 35.6917C37.7851 36.0149 38.0716 36.3223 38.3945 36.612C39.4999 37.6041 40.8204 38.2698 41.9688 39.1964C42.4782 39.6077 42.9347 40.0856 43.2988 40.6297C43.4924 40.9198 43.6303 41.2309 43.7982 41.5336C43.9624 41.8269 44.2426 42.0257 44.5259 42.1936C45.1056 42.5351 45.7572 42.7146 46.3553 43.0241C46.3862 43.0401 46.4168 43.0568 46.4469 43.0742C47.0442 43.4191 46.766 43.6183 46.1014 43.4338C45.9648 43.396 45.8412 43.3637 45.7265 43.3347C45.1121 43.1795 44.6455 43.711 45.0747 44.1773C45.4734 44.6106 45.8758 45.0424 46.2588 45.4904C46.8962 46.2372 47.1707 47.0654 47.1691 47.9832C47.1687 48.2459 46.9555 48.2844 46.8815 48.0323C46.8044 47.7679 46.7226 47.5061 46.6182 47.2522C46.4303 46.7978 46.1775 46.3697 45.8517 46.0019C45.5059 45.6111 45.0621 45.2995 44.6639 44.9642C44.5904 44.9023 44.5201 44.8395 44.4526 44.7755C44.0347 44.3792 43.3172 44.4429 43.0686 44.9624C42.7476 45.6332 42.3271 45.2997 42.5842 44.6019C42.986 43.5115 43.1483 42.3678 42.5916 41.3736C42.1215 40.5342 41.3797 39.8941 40.5927 39.3632C40.1536 39.0673 39.7092 38.7772 39.2696 38.4818C38.9601 38.2732 38.4488 38.6541 38.5766 39.0047C38.93 39.9737 39.2445 40.9552 39.4579 41.9685C39.7827 43.5099 39.7197 45.0424 39.8535 46.5995C39.9143 47.3198 40.0319 47.9132 40.4264 48.537C40.8225 49.1629 41.3519 49.6676 41.8188 50.2368C42.293 50.8123 43.0506 50.997 43.7169 51.231C44.0281 51.3402 44.2965 51.5045 44.5217 51.6819C44.9942 52.0543 44.846 52.256 44.3383 51.9333C44.3212 51.9225 44.3057 51.9132 44.2919 51.9057C43.7015 51.5828 43.2725 52.2847 43.4383 52.9369C43.6053 53.5941 43.6335 54.2735 43.5159 54.9495C43.4668 55.232 43.2242 55.2068 43.2043 54.9208C43.1786 54.5556 43.1089 54.1941 42.9961 53.8458C42.7705 53.1501 42.3644 52.5164 41.9405 51.9261C41.5171 51.3359 41.0119 50.8249 40.5292 50.2851C40.418 50.161 40.3128 50.0373 40.2123 49.9127C39.8374 49.4481 39.052 49.5506 38.8257 50.103Z" fill="#59432D" stroke="#59432D" stroke-width="0.7"/>
<path d="M11.3066 11.3828L17.6525 17.7287" stroke="#59432D" stroke-width="2" stroke-linecap="round"/>
<path d="M53.8223 53.8994L60.1681 60.2453" stroke="#59432D" stroke-width="2" stroke-linecap="round"/>
</svg>
