<svg width="72" height="72" viewBox="0 0 72 72" fill="none" xmlns="http://www.w3.org/2000/svg">
<path fill-rule="evenodd" clip-rule="evenodd" d="M71 36C71 45.2826 67.3125 54.185 60.7488 60.7488C54.185 67.3125 45.2826 71 36 71C26.7174 71 17.815 67.3125 11.2512 60.7488C4.68749 54.185 1 45.2826 1 36C1 26.7174 4.68749 17.815 11.2512 11.2512C17.815 4.68749 26.7174 1 36 1C45.2826 1 54.185 4.68749 60.7488 11.2512C67.3125 17.815 71 26.7174 71 36Z" fill="#59432D" stroke="#59432D" stroke-width="2"/>
<path d="M67.0537 35.9999C67.0537 44.2354 63.7821 52.1335 57.9588 57.9569C52.1355 63.7802 44.2374 67.0517 36.0019 67.0517C27.7665 67.0517 19.8684 63.7802 14.0451 57.9569C8.2217 52.1335 4.9502 44.2354 4.9502 35.9999C4.9502 27.7645 8.2217 19.8664 14.0451 14.0431C19.8684 8.21975 27.7665 4.94824 36.0019 4.94824C44.2374 4.94824 52.1355 8.21975 57.9588 14.0431C63.7821 19.8664 67.0537 27.7645 67.0537 35.9999Z" fill="#F8F4EC" stroke="#F8F4EC" stroke-width="0.394231"/>
<path fill-rule="evenodd" clip-rule="evenodd" d="M67.2211 36C67.2211 53.2334 53.2345 67.22 36.0011 67.22C18.7676 67.22 4.78113 53.2334 4.78113 36H67.2211Z" fill="#59432D"/>
<path fill-rule="evenodd" clip-rule="evenodd" d="M67.2211 35.9998C67.2211 44.2798 63.9319 52.2208 58.077 58.0756C52.2222 63.9305 44.2812 67.2198 36.0011 67.2198C27.7211 67.2198 19.7802 63.9305 13.9253 58.0756C8.07037 52.2208 4.78113 44.2798 4.78113 35.9998C4.78113 27.7197 8.07037 19.7788 13.9253 13.9239C19.7802 8.06903 27.7211 4.77979 36.0011 4.77979C44.2812 4.77979 52.2222 8.06903 58.077 13.9239C63.9319 19.7788 67.2211 27.7197 67.2211 35.9998Z" stroke="#F8F4EC" stroke-width="5.51955" stroke-linejoin="round"/>
<path fill-rule="evenodd" clip-rule="evenodd" d="M17.9392 19.0603H21.0892V29.1208C21.0892 29.1208 21.098 30.0789 22.0517 30.0789C23.0055 30.0789 23.1455 29.1295 23.1455 29.1295V19.069H26.2166V29.1381C26.2166 29.1381 26.2273 32.5004 22.1128 32.5004C18.0233 32.5004 17.9436 29.1426 17.9436 29.1426L17.9392 19.0603ZM32.3064 23.2272H35.1525C35.1525 23.2272 35.3999 19.0603 31.2174 19.0603C30.0793 19.0603 28.9474 19.5529 28.3501 20.2026C27.7022 20.9075 27.3814 21.61 27.3814 22.8178C27.3814 23.7647 27.4814 25.1992 29.9305 26.5751C31.4301 27.418 32.3063 28.0445 32.3063 28.9355C32.3063 29.8267 31.8113 30.1399 31.1183 30.1399C30.1897 30.1399 30.0727 29.1493 30.0727 29.032C30.0727 28.8996 30.0542 27.924 30.0542 27.924H27.109C27.109 27.924 26.5646 32.5004 31.0441 32.5004C35.4034 32.5004 35.1525 29.1524 35.1525 28.454C35.1525 26.2138 34.0624 25.4766 32.331 24.5038C30.9103 23.7056 30.2026 23.2272 30.2026 22.4324C30.2026 21.6376 30.7402 21.4208 31.1679 21.4208C32.3271 21.4208 32.3142 22.5052 32.3142 22.6191C32.3142 22.7198 32.331 23.2513 32.3064 23.2272ZM36.4641 19.0603H40.7951C41.983 19.0603 44.5322 19.4691 44.5322 21.9988V29.5875C44.5322 31.4715 42.8428 32.5004 41.0424 32.5004H36.4639L36.4641 19.0603ZM39.5603 21.5271H40.5672C41.1259 21.5271 41.4359 21.7859 41.4359 23.3869V28.1899C41.4359 29.3824 41.3934 30.0336 40.6246 30.0336H39.5603V21.5271ZM48.5291 32.5004H45.5367L48.3717 19.0603H51.9767L54.8817 32.4639H51.7142L51.3467 30.0054H49.0192L48.5291 32.5004ZM49.3517 27.6197H50.9967L50.2267 21.5553L49.3517 27.6197Z" fill="#59432D"/>
<path fill-rule="evenodd" clip-rule="evenodd" d="M36.6832 49.8769H34.4355L36.5647 39.7969H39.2724L41.4542 49.8496H39.0751L38.7992 48.0058H37.051L36.6832 49.8769ZM37.3009 46.2165H38.5364L37.9582 41.6682L37.3009 46.2165Z" fill="#F8F4EC"/>
<path fill-rule="evenodd" clip-rule="evenodd" d="M15.5624 39.7971H16.7525C18.1436 39.7971 19.2634 40.9016 19.2634 42.2733V47.401C19.2634 48.7728 18.1436 49.8771 16.7525 49.8771H15.5626C14.1713 49.8771 13.0515 48.7728 13.0515 47.401V42.2733C13.0515 40.9016 14.1715 39.7971 15.5624 39.7971ZM16.1574 41.4814C16.5963 41.4814 16.9495 41.8459 16.9495 42.2989V47.3754C16.9495 47.8284 16.5963 48.1931 16.1575 48.1931C15.7188 48.1931 15.3655 47.8284 15.3655 47.3755V42.2989C15.3655 41.8459 15.7186 41.4814 16.1574 41.4814Z" fill="#F8F4EC"/>
<path fill-rule="evenodd" clip-rule="evenodd" d="M22.6782 45.9008V49.8769H20.3271V39.7969H23.9652C25.3759 39.7969 26.5391 40.4024 26.5391 42.5323C26.5391 44.6598 25.4748 44.5962 25.4748 44.8497C25.4748 45.2111 26.5143 44.5616 26.5143 47.4202C26.5143 49.7186 26.8608 49.4971 26.8608 49.6806C26.8608 49.8643 26.8483 49.8706 26.8483 49.8706H24.188V47.0023C24.188 46.0776 23.6474 45.9008 22.6782 45.9008ZM22.6411 43.9758V41.6109C23.1516 41.6109 24.188 41.4112 24.188 42.7729C24.188 44.116 23.4549 43.9758 22.6411 43.9758ZM31.4392 46.1211H30.6226V44.4492H33.7656V49.7073H32.1075V48.8351C32.1075 48.8351 31.662 49.8769 30.0286 49.8769C28.3952 49.8769 27.4795 48.7623 27.4795 47.4297V42.0019C27.4795 40.7177 28.8901 39.7969 30.5979 39.7969C32.3056 39.7969 33.6728 40.7419 33.6728 41.9535C33.6728 43.1651 33.6667 43.3346 33.6667 43.3346H31.3898V42.2201C31.3898 41.7838 30.8948 41.4688 30.6226 41.4688C30.3503 41.4688 29.7686 41.6627 29.7686 42.3048V47.1388C29.7686 47.7204 30.0038 48.1323 30.5731 48.1323C31.1423 48.1323 31.4641 47.6477 31.4641 47.2116C31.4641 46.7754 31.4641 46.0485 31.4392 46.1211Z" fill="#F8F4EC"/>
<path fill-rule="evenodd" clip-rule="evenodd" d="M44.2598 44.7624V49.8524H42.0818V39.7971H44.5072L46.2149 45.3612V39.822H48.3681V49.8771H45.8684L44.2598 44.7624Z" fill="#F8F4EC"/>
<path fill-rule="evenodd" clip-rule="evenodd" d="M49.5049 39.7969H51.7818V49.8769H49.5049V39.7969Z" fill="#F8F4EC"/>
<path fill-rule="evenodd" clip-rule="evenodd" d="M56.8811 43.3828H59.1579V41.9051C59.1579 41.0327 58.3165 39.7969 55.8663 39.7969C53.4162 39.7969 52.9707 41.5173 52.9707 42.2927V47.3085C52.9707 48.2535 53.3914 49.8769 55.9405 49.8769C58.4897 49.8769 59.2816 48.2777 59.2816 47.6961V45.9273H56.9058V47.4052C56.9058 47.7838 56.5375 48.1323 56.1139 48.1323C55.7037 48.1323 55.3218 47.8899 55.3218 47.4052V42.2925C55.3218 41.8323 55.5469 41.6019 56.1139 41.6019C56.6043 41.6019 56.8933 42.0382 56.8933 42.3652C56.8933 42.6924 56.9058 43.4071 56.8811 43.3828Z" fill="#F8F4EC"/>
</svg>
