<svg width="169" height="30" viewBox="0 0 169 30" fill="none" xmlns="http://www.w3.org/2000/svg">
<path d="M19.6487 6.74565C19.6487 4.33637 18.0033 2.81608 15.8351 2.81608C15.3289 2.81608 14.0406 2.83265 13.5916 2.88236L12.0878 12.2038C12.3621 12.2287 12.8351 12.2038 13.0853 12.2038C16.657 12.2038 19.6487 9.87738 19.6487 6.74565ZM46.3165 0.988408L43.3173 19.2908C43.1931 20.0381 43.1848 20.3372 44.6056 20.3372L44.2477 22.6802H41.7805C43.1351 23.3041 44.4557 24.2759 44.4557 25.5551C44.4557 28.0058 42.0464 29.9578 35.7324 29.9578C24.0431 29.9578 16.3256 23.9934 13.6744 15.0282H11.6056L10.7084 20.6703C10.5418 21.7498 10.5584 22.0994 12.4781 22.2237L13.7995 22.3148L13.2593 25.0729C11.348 24.9561 9.23779 24.8558 7.13588 24.865C5.22536 24.865 3.21458 24.9644 1.32063 25.0729L1.76968 22.3148C2.26844 22.29 2.60894 22.29 2.93289 22.256C3.2328 22.2312 3.52858 22.1699 3.81359 22.0737C4.34548 21.9072 4.77714 21.5667 4.89313 20.8774L7.74316 3.68849C6.93113 3.83141 6.13521 4.05425 5.36702 4.35378C4.73571 4.60232 4.04557 5.17565 4.04557 5.64127C4.04557 5.84093 4.08782 5.99007 4.17067 6.12345C4.27837 6.28915 4.41176 6.43911 4.41176 6.66281C4.41176 6.82022 4.34549 6.91218 4.26264 7.02071C3.84756 7.51947 2.91632 7.91715 2.04391 7.91715C1.77554 7.91726 1.50978 7.8645 1.2618 7.76187C1.01383 7.65925 0.788501 7.50877 0.598696 7.31904C0.40889 7.12931 0.258323 6.90405 0.155597 6.65612C0.0528704 6.40819 -2.20658e-08 6.14244 0 5.87407V5.84921C0 2.6338 4.02155 1.34549 6.59653 0.839272C9.49157 0.30985 12.4266 0.0290683 15.3695 0C21.3099 0 25.6214 1.85253 25.6214 6.53853C25.6214 10.3935 22.6976 12.8857 19.565 13.9486C21.9495 21.3853 27.773 26.9677 35.2502 26.9677C38.092 26.9677 39.0887 25.7548 39.0887 24.5667C39.1041 24.0823 38.9265 23.6117 38.5949 23.2582C38.2634 22.9047 37.805 22.6974 37.3206 22.6819L37.2361 22.681H36.0564L36.5054 20.338C37.3364 20.338 38.2502 20.2635 38.3911 19.4085L40.5261 6.2063C40.5592 5.97432 40.4681 5.8749 40.227 5.8749H38.2411L38.6322 3.78129L46.0762 0.74897L46.3173 0.998345L46.3165 0.988408ZM153.904 20.3364L153.456 22.6794H145.447L145.838 20.3364C147.067 20.3364 147.242 20.2287 147.4 19.174L148.272 13.4085C148.423 12.4201 147.824 12.087 147.251 12.087C146.088 12.087 144.884 13.2999 144.675 14.6959L143.953 19.3728C143.845 20.0381 143.953 20.3364 145.332 20.3364L144.967 22.6794H136.842L137.257 20.3364C138.727 20.3364 138.976 20.121 139.118 19.2237L140.081 13.2834C140.148 12.8674 140.081 12.8103 139.75 12.8103H137.979L138.345 10.7664L145.597 7.65038L145.814 7.85833L145.482 9.68601C146.811 8.50622 148.282 7.67524 149.952 7.67524C152.037 7.67524 153.433 9.63547 153.433 11.7299C153.433 12.2204 153.391 12.6181 153.283 13.3165L152.32 19.1657C152.153 20.1458 152.328 20.3281 153.915 20.3281L153.904 20.3364ZM124.544 8.37366L123.165 11.3066C122.639 11.0941 122.078 10.9814 121.511 10.9743H119.867L118.754 17.7871C118.554 19.0091 118.786 19.2245 119.418 19.2245C120.099 19.2245 120.798 18.8749 122.052 17.7291L123.133 19.855C121.645 21.4333 119.751 23.0953 117.342 23.0953C114.783 23.0953 113.653 21.633 113.653 19.3148C113.653 18.8244 113.737 18.1591 113.804 17.6951L114.883 10.9735L112.998 11.0066L113.447 8.43165L115.241 8.45651L115.665 5.73157L120.617 3.72079L120.949 4.05302L120.251 8.39768L124.546 8.36455V8.37366H124.544ZM114.674 1.02154C114.04 3.2203 113.529 5.45305 113.145 7.70921H110.263C110.529 6.75394 110.611 6.15576 110.62 5.63215C110.645 4.38526 109.225 3.59652 107.115 3.59652C104.955 3.59652 103.51 4.70174 103.484 6.08865C103.46 7.40182 103.958 7.95029 105.62 9.12097L108.494 11.1566C111.169 13.0505 112.78 14.8211 112.73 17.8774C112.64 22.9536 108.336 25.5211 102.828 25.5211C101.54 25.5211 100.468 25.314 99.5874 25.1061C98.8401 24.923 98.1177 24.6901 97.3364 24.6901C96.7493 24.703 96.174 24.8568 95.6587 25.1384L95.2105 24.8898C94.8465 22.4279 94.403 19.9784 93.8807 17.5452L96.8882 16.8227C97.6777 20.5443 99.4052 22.256 103.153 22.256C105.612 22.256 106.934 21.0605 106.967 19.1408C107 17.2966 106.045 16.5327 104.299 15.3861C103.53 14.8988 102.769 14.4003 102.015 13.8906C101.286 13.4165 100.605 12.8738 99.9793 12.2701C99.3226 11.5998 98.8128 10.8 98.4824 9.92175C98.152 9.04346 98.0083 8.10594 98.0605 7.16902C98.1268 3.18144 101.699 0.356262 106.543 0.356262C108.569 0.356262 110.149 0.8633 111.976 0.96272C112.582 0.987575 113.605 0.854192 114.253 0.688491L114.669 1.02072L114.674 1.02154ZM62.8409 3.4474C62.8409 5.33307 60.797 6.98592 58.6703 6.98592C57.5899 6.98592 56.3356 6.52942 56.3356 5.00912C56.3356 2.74897 58.6288 1.22867 60.5311 1.22867C61.7863 1.2295 62.8409 2.06877 62.8409 3.4474ZM62.3596 7.85916L60.5319 18.9578C60.3248 20.2047 60.2991 20.3364 62.0936 20.3364L61.7283 22.6794H53.3621L53.7192 20.3364C55.0986 20.3364 55.4971 20.005 55.6139 19.2568L56.5443 13.1922C56.594 12.8434 56.6023 12.8103 56.2453 12.8103H54.3264L54.6844 10.7664L62.1533 7.65038L62.3596 7.85916ZM54.9238 0.897273L51.9826 18.8666C51.7664 20.2046 51.908 20.3364 53.2452 20.3364L52.8799 22.6711H44.7216L45.087 20.3364C46.5162 20.3364 46.8732 20.063 47.0315 19.0489L49.0754 6.3546C49.1417 5.93952 49.092 5.88153 48.7763 5.88153H46.8815L47.2469 3.80448L54.7158 0.696772L54.9238 0.904731V0.897273ZM163.417 12.237C163.375 10.908 162.835 10.5261 162.062 10.5261C161.181 10.5261 159.928 11.6065 159.454 14.0149L163.417 12.237ZM168.186 12.9594L159.064 17.1549C159.254 18.7167 160.127 19.7631 161.556 19.7631C163.051 19.7631 163.567 18.9238 163.567 18.5336C163.568 18.364 163.515 18.1986 163.417 18.0605C163.3 17.8948 163.209 17.7954 163.209 17.5791C163.2 17.4469 163.242 17.3163 163.326 17.2138C163.588 16.9355 163.905 16.7149 164.256 16.5661C164.608 16.4174 164.988 16.3436 165.37 16.3496C166.433 16.3496 167.38 17.1475 167.38 18.3604C167.38 20.9942 164.796 23.1292 160.751 23.1292C156.763 23.1292 153.913 20.7117 153.913 16.1342C153.913 12.0389 157.568 7.61889 162.129 7.61889C165.951 7.61806 167.613 9.53687 168.186 12.9594ZM132.544 12.9263C132.544 11.2734 132.005 10.5261 131.024 10.5261C129.595 10.5261 128.05 13.5501 128.05 17.8451C128.05 19.4897 128.606 20.2129 129.578 20.2129C131.09 20.2129 132.553 16.7233 132.553 12.9263M137.737 14.1309C137.737 18.6346 134.497 23.1541 129.346 23.1541C125.425 23.1541 122.924 20.8691 122.924 16.3165C122.924 11.6727 126.43 7.56007 131.265 7.56007C135.028 7.56007 137.745 9.93621 137.745 14.1234M87.2577 24.9901C87.2577 24.6495 86.942 24.4176 86.2105 24.4176C85.372 24.4176 84.5245 24.5336 83.6603 24.5336C82.3457 24.5832 81.0383 24.3182 79.8467 23.7606C79.2651 24.2179 78.9163 24.7415 78.9163 25.4971C78.9163 26.4698 80.1873 27.2668 81.5916 27.2668C85.3066 27.266 87.2577 25.9122 87.2577 24.9901ZM88.0978 11.879C88.0978 11.0489 87.773 10.3173 87.1003 10.3173C85.5717 10.3173 84.9147 13.1508 84.9147 14.8451C84.9147 16.0249 85.1641 16.5236 85.9702 16.5236C87.3157 16.5236 88.097 13.4333 88.097 11.8708M97.4607 9.42088C97.4607 10.3761 96.6131 11.5476 95.7987 11.5476C95.5327 11.5476 95.4408 11.3571 95.2999 11.1566C95.2097 11.0313 95.0816 10.9384 94.9346 10.8915C94.8202 10.848 94.699 10.8253 94.5767 10.8244C93.7042 10.8244 93.0812 11.8128 93.0812 12.686L93.1061 13.2842C93.0923 14.23 92.8226 15.1545 92.3256 15.9594C91.6724 16.9838 90.7725 17.8279 89.7085 18.4144C88.6444 19.0009 87.4503 19.3111 86.2353 19.3165C85.311 19.3487 84.3883 19.2163 83.5104 18.9255C83.3596 19.0897 83.2713 19.3017 83.261 19.5245C83.261 20.1384 83.7515 20.2718 84.4988 20.2718C86.053 20.2718 87.4399 20.039 88.8766 20.039C91.3364 20.039 93.1052 21.2519 93.1052 23.5195C93.1052 27.5485 86.9569 30 81.2254 30C77.8194 30 74.5377 29.0191 74.5377 26.1284C74.5377 24.6993 75.3687 23.5866 77.2378 22.6802H70.4582L70.8492 20.3372C72.2121 20.3041 72.3447 20.2055 72.4689 19.3413L73.3662 13.3513C73.483 12.6114 72.9843 12.0887 72.353 12.0887C71.1732 12.0887 69.9685 13.4176 69.802 14.4896L69.0216 19.4416C68.9213 20.0555 69.0547 20.338 70.3422 20.338L69.9768 22.681H62.2096L62.5998 20.338C63.9462 20.338 63.9868 20.1392 64.0953 19.4416L65.0928 13.2602C65.1591 12.8451 65.0928 12.8119 64.7937 12.8119H62.8666L63.2569 10.7349L70.7009 7.65204L70.9089 7.85998L70.6098 9.66281C72.1052 8.36704 73.6338 7.65204 74.9884 7.65204C77.3646 7.65204 78.5269 9.87076 78.5269 11.9056C78.5269 12.1301 78.469 12.6868 78.4441 12.9031L77.4226 19.2916C77.2983 20.0646 77.8376 20.2883 78.5858 20.338C78.9594 18.918 80.0149 18.179 81.261 17.6719C80.7908 17.1895 80.4231 16.6169 80.1804 15.9885C79.9376 15.3601 79.8246 14.689 79.8484 14.0158C79.8484 9.97018 83.4955 7.5029 87.2005 7.5029C88.8874 7.5029 90.981 8.06794 92.1442 9.83679C92.9843 8.36703 94.1881 7.5029 95.4416 7.5029C96.5634 7.5029 97.4524 8.21707 97.4524 9.41426M32.9329 12.9263C32.9329 11.2734 32.3844 10.5261 31.4043 10.5261C29.9752 10.5261 28.4383 13.5501 28.4383 17.8451C28.4383 19.4897 28.995 20.2212 29.9669 20.2212C31.4789 20.2212 32.9329 16.7316 32.9329 12.9263ZM38.1251 14.1309C38.1251 18.6346 34.8848 23.1541 29.7258 23.1541C25.8128 23.1541 23.3041 20.8691 23.3041 16.3165C23.3041 11.6727 26.8103 7.56007 31.6454 7.56007C35.4176 7.56007 38.1259 9.93621 38.1259 14.1234" fill="#59432D"/>
</svg>
