<svg width="72" height="72" viewBox="0 0 72 72" fill="none" xmlns="http://www.w3.org/2000/svg">
<path d="M36 71C55.33 71 71 55.33 71 36C71 16.67 55.33 1 36 1C16.67 1 1 16.67 1 36C1 55.33 16.67 71 36 71Z" stroke="#59432D" stroke-width="2"/>
<path d="M53.8554 24.9369C52.6595 23.0066 49.6248 22.4747 45.307 23.442C44.4341 23.6374 43.5203 23.8988 42.5853 24.202C41.2997 18.8921 39.0817 15 36.0161 15C32.9489 15 30.7302 18.8963 29.445 24.2107C28.5065 23.9071 27.5896 23.6458 26.7137 23.4505C22.3947 22.4862 19.3608 23.0215 18.1671 24.9527C16.4681 27.7005 18.9352 31.9202 23.1624 36.0059C18.939 40.0953 16.4758 44.317 18.1769 47.0631C18.9827 48.3641 20.6233 49.0293 22.9292 49.0293C24.0451 49.0293 25.317 48.8734 26.7252 48.558C27.5982 48.3626 28.5119 48.1012 29.447 47.798C30.7325 53.1079 32.9505 57 36.0161 57C39.0833 57 41.302 53.1037 42.5872 47.7893C43.5257 48.0929 44.4427 48.3542 45.3186 48.5495C46.7225 48.8627 47.9906 49.0173 49.104 49.0173C51.4149 49.0173 53.0594 48.3504 53.8652 47.0473C55.5642 44.2995 53.0971 40.0797 48.8698 35.994C53.0932 31.9047 55.5564 27.683 53.8554 24.9369ZM36.0161 16.75C37.8082 16.75 39.725 19.7845 40.927 24.7833C39.3328 25.3831 37.6826 26.1197 36.0124 26.9736C34.3441 26.1226 32.6958 25.3884 31.1034 24.7906C32.3052 19.7873 34.2233 16.75 36.0161 16.75ZM42.1369 36C42.1369 37.1582 42.0954 38.2699 42.0319 39.3516C41.1466 39.9754 40.2242 40.5964 39.2406 41.2064C38.1683 41.8714 37.0908 42.4888 36.0192 43.0599C34.9471 42.4898 33.8692 41.8734 32.7964 41.2094C31.8112 40.5996 30.8872 39.9788 30.0005 39.3552C29.9369 38.2724 29.8954 37.1594 29.8954 36C29.8954 34.8418 29.9369 33.7301 30.0004 32.6484C30.8857 32.0246 31.8081 31.4036 32.7917 30.7936C33.864 30.1286 34.9415 29.5112 36.0131 28.9401C37.0852 29.5102 38.163 30.1266 39.2359 30.7906C40.2211 31.4004 41.1451 32.0212 42.0318 32.6448C42.0954 33.7276 42.1369 34.8406 42.1369 36ZM43.8501 33.9783C44.7278 34.6537 45.5398 35.3272 46.2946 35.9953C45.5399 36.6645 44.728 37.3391 43.8504 38.0156C43.8742 37.3432 43.8869 36.6702 43.8869 36C43.8869 35.3278 43.874 34.6528 43.8501 33.9783ZM41.8553 41.6004C41.7153 42.9761 41.5309 44.2797 41.3016 45.4842C40.1941 45.0602 39.0586 44.571 37.9057 44.0168C38.6589 43.5947 39.4122 43.1586 40.1626 42.6932C40.7318 42.3402 41.2967 41.9749 41.8553 41.6004ZM34.1332 44.0186C32.9786 44.575 31.8411 45.0658 30.7319 45.4914C30.5022 44.2856 30.3175 42.9802 30.1772 41.6029C30.7376 41.9779 31.3042 42.3436 31.8753 42.6971C32.626 43.1618 33.3797 43.5972 34.1332 44.0186ZM28.1822 38.0217C27.3045 37.3463 26.4926 36.6728 25.7377 36.0047C26.4923 35.3355 27.3043 34.6609 28.1819 33.9844C28.1581 34.6568 28.1454 35.3298 28.1454 36C28.1454 36.6722 28.1582 37.3472 28.1822 38.0217ZM30.177 30.3996C30.317 29.0239 30.5014 27.7203 30.7307 26.5158C31.8382 26.9398 32.9737 27.429 34.1265 27.9832C33.3734 28.4053 32.6201 28.8414 31.8697 29.3068C31.3005 29.6598 30.7356 30.0251 30.177 30.3996ZM40.157 29.3029C39.4063 28.8382 38.6526 28.4028 37.8991 27.9814C39.0537 27.425 40.1912 26.9342 41.3004 26.5086C41.5301 27.7144 41.7147 29.0198 41.8551 30.3971C41.2947 30.0221 40.7281 29.6564 40.157 29.3029ZM19.6556 25.873C20.123 25.1172 21.2689 24.7284 22.8975 24.7284C23.8811 24.7284 25.041 24.8702 26.333 25.1582C27.2089 25.3535 28.1277 25.6157 29.0717 25.9262C28.7148 27.758 28.4601 29.7137 28.3093 31.7078C26.9455 32.7036 25.6438 33.7478 24.4478 34.8131C20.4495 30.9435 18.6669 27.472 19.6556 25.873ZM26.3429 46.8503C22.9108 47.6181 20.4148 47.3536 19.6646 46.142C18.6748 44.5439 20.4542 41.0708 24.4488 37.1976C25.6447 38.2609 26.9462 39.3031 28.3096 40.2969C28.4607 42.2924 28.7158 44.2495 29.0733 46.0822C28.1322 46.3924 27.2162 46.6548 26.3429 46.8503ZM36.0161 55.25C34.2241 55.25 32.3073 52.2155 31.1053 47.2167C32.6995 46.6169 34.3497 45.8803 36.0199 45.0264C37.6882 45.8774 39.3364 46.6116 40.9288 47.2094C39.727 52.2127 37.809 55.25 36.0161 55.25ZM52.3767 46.127C51.6269 47.3391 49.13 47.6061 45.6992 46.8418C44.8234 46.6465 43.9046 46.3843 42.9606 46.0738C43.3175 44.242 43.5721 42.2863 43.723 40.2922C45.0868 39.2964 46.3885 38.2522 47.5845 37.1869C51.5827 41.0565 53.3654 44.528 52.3767 46.127ZM43.7226 31.7031C43.5716 29.7076 43.3165 27.7505 42.959 25.9178C43.9001 25.6076 44.8161 25.3452 45.6894 25.1497C46.9857 24.8596 48.1482 24.7169 49.1339 24.7169C50.7574 24.7169 51.9007 25.1039 52.3677 25.858C53.3575 27.4561 51.5781 30.9292 47.5835 34.8024C46.3876 33.7391 45.0861 32.6969 43.7226 31.7031Z" fill="#59432D"/>
<path d="M36.4375 38.625C37.6456 38.625 38.625 37.6456 38.625 36.4375C38.625 35.2294 37.6456 34.25 36.4375 34.25C35.2294 34.25 34.25 35.2294 34.25 36.4375C34.25 37.6456 35.2294 38.625 36.4375 38.625Z" fill="#59432D"/>
</svg>
