<svg width="72" height="72" viewBox="0 0 72 72" fill="none" xmlns="http://www.w3.org/2000/svg">
<path d="M36 71C55.33 71 71 55.33 71 36C71 16.67 55.33 1 36 1C16.67 1 1 16.67 1 36C1 55.33 16.67 71 36 71Z" stroke="#59432D" stroke-width="2"/>
<path d="M16.9052 32.0999C15.8452 32.0999 14.7752 31.7299 13.9352 30.9799L14.8452 29.8899C15.4752 30.4099 16.1352 30.7399 16.9352 30.7399C17.5652 30.7399 17.9452 30.4899 17.9452 30.0799V30.0599C17.9452 29.6699 17.7052 29.4699 16.5352 29.1699C15.1252 28.8099 14.2152 28.4199 14.2152 27.0299V27.0099C14.2152 25.7399 15.2352 24.8999 16.6652 24.8999C17.6852 24.8999 18.5552 25.2199 19.2652 25.7899L18.4652 26.9499C17.8452 26.5199 17.2352 26.2599 16.6452 26.2599C16.0552 26.2599 15.7452 26.5299 15.7452 26.8699V26.8899C15.7452 27.3499 16.0452 27.4999 17.2552 27.8099C18.6752 28.1799 19.4752 28.6899 19.4752 29.9099V29.9299C19.4752 31.3199 18.4152 32.0999 16.9052 32.0999ZM20.8117 31.9999V24.9999H22.4717L24.3117 27.9599L26.1517 24.9999H27.8117V31.9999H26.2817V27.4299L24.3117 30.4199H24.2717L22.3217 27.4599V31.9999H20.8117ZM32.8933 32.1199C30.7333 32.1199 29.1833 30.5099 29.1833 28.5199V28.4999C29.1833 26.5099 30.7533 24.8799 32.9133 24.8799C35.0733 24.8799 36.6233 26.4899 36.6233 28.4799V28.4999C36.6233 30.4899 35.0533 32.1199 32.8933 32.1199ZM32.9133 30.6999C34.1533 30.6999 35.0133 29.7199 35.0133 28.5199V28.4999C35.0133 27.2999 34.1333 26.2999 32.8933 26.2999C31.6533 26.2999 30.7933 27.2799 30.7933 28.4799V28.4999C30.7933 29.6999 31.6733 30.6999 32.9133 30.6999ZM41.3894 32.1199C39.2294 32.1199 37.6794 30.5099 37.6794 28.5199V28.4999C37.6794 26.5099 39.2494 24.8799 41.4094 24.8799C43.5694 24.8799 45.1194 26.4899 45.1194 28.4799V28.4999C45.1194 30.4899 43.5494 32.1199 41.3894 32.1199ZM41.4094 30.6999C42.6494 30.6999 43.5094 29.7199 43.5094 28.5199V28.4999C43.5094 27.2999 42.6294 26.2999 41.3894 26.2999C40.1494 26.2999 39.2894 27.2799 39.2894 28.4799V28.4999C39.2894 29.6999 40.1694 30.6999 41.4094 30.6999ZM47.8128 31.9999V26.4199H45.6828V24.9999H51.4828V26.4199H49.3528V31.9999H47.8128ZM52.6671 31.9999V24.9999H54.2071V27.7699H57.0471V24.9999H58.5871V31.9999H57.0471V29.1899H54.2071V31.9999H52.6671ZM16.9824 45.9999V38.1879H14.0004V36.1999H22.1204V38.1879H19.1384V45.9999H16.9824ZM21.6807 45.9999L25.8807 36.1299H27.8687L32.0687 45.9999H29.8147L28.9187 43.8019H24.7747L23.8787 45.9999H21.6807ZM25.5447 41.8979H28.1487L26.8467 38.7199L25.5447 41.8979ZM36.9306 46.1399C35.4466 46.1399 33.9486 45.6219 32.7726 44.5719L34.0466 43.0459C34.9286 43.7739 35.8526 44.2359 36.9726 44.2359C37.8546 44.2359 38.3866 43.8859 38.3866 43.3119V43.2839C38.3866 42.7379 38.0506 42.4579 36.4126 42.0379C34.4386 41.5339 33.1646 40.9879 33.1646 39.0419V39.0139C33.1646 37.2359 34.5926 36.0599 36.5946 36.0599C38.0226 36.0599 39.2406 36.5079 40.2346 37.3059L39.1146 38.9299C38.2466 38.3279 37.3926 37.9639 36.5666 37.9639C35.7406 37.9639 35.3066 38.3419 35.3066 38.8179V38.8459C35.3066 39.4899 35.7266 39.6999 37.4206 40.1339C39.4086 40.6519 40.5286 41.3659 40.5286 43.0739V43.1019C40.5286 45.0479 39.0446 46.1399 36.9306 46.1399ZM44.4766 45.9999V38.1879H41.4946V36.1999H49.6146V38.1879H46.6326V45.9999H44.4766ZM51.2727 45.9999V36.1999H58.6647V38.1179H53.4147V40.1059H58.0347V42.0239H53.4147V44.0819H58.7347V45.9999H51.2727Z" fill="#59432D"/>
</svg>
