<svg width="88" height="66" viewBox="0 0 88 66" fill="none" xmlns="http://www.w3.org/2000/svg">
<path d="M87.3062 44.0597C83.7246 62.0726 58.5036 66.1877 46.3409 65.9935C40.1477 65.9935 24.7167 64.7901 12.5391 59.9763C-2.68287 53.959 -4.24984 38.2365 8.9575 22.1258C22.1648 6.01507 46.3409 -3.10787 59.9959 0.968334C73.651 5.04455 91.783 21.5435 87.3062 44.0597Z" fill="#F1D4A4"/>
<path d="M48.1494 18.1072C48.9056 18.1072 49.5242 18.7264 49.5244 19.4822C49.5244 21.3248 48.025 22.824 46.1816 22.824H36.3447C32.7632 22.8241 29.8506 25.7357 29.8506 29.3162C29.8506 32.8967 32.7632 35.8082 36.3447 35.8083H44.2148C44.9711 35.8085 45.5898 36.4274 45.5898 37.1833C45.5897 37.9391 44.971 38.5582 44.2148 38.5583H43.7227C39.3294 38.5584 35.7529 42.1333 35.7529 46.5251C35.7528 47.281 35.1341 47.9 34.3779 47.9001C33.6216 47.9001 33.0021 47.2811 33.002 46.5251C33.002 43.9338 33.9477 41.4299 35.6631 39.4714L36.2822 38.7634L36.4082 38.6199L36.2188 38.5984L35.2842 38.49C30.6179 37.9549 27.0996 34.01 27.0996 29.3162C27.0996 24.2187 31.2455 20.0741 36.3447 20.074H46.7734V19.4822C46.7737 18.7264 47.3932 18.1072 48.1494 18.1072Z" fill="#59432D" stroke="#F1D4A4" stroke-width="0.2"/>
<path d="M59.8057 18.0996C60.5536 18.0996 61.1572 18.7035 61.1572 19.4512C61.1572 24.1336 58.2232 28.141 54.0947 29.7373L53.9502 29.793L54.0605 29.9014L54.5684 30.4043V30.4053C56.3202 32.1327 57.2871 34.4286 57.2871 36.8682C57.287 41.8817 53.2087 45.958 48.1934 45.958H47.6104V46.541C47.6104 47.2837 47.0018 47.8924 46.2588 47.8926C45.5157 47.8926 44.9072 47.2838 44.9072 46.541C44.9074 44.7296 46.3813 43.2561 48.1934 43.2559C51.7176 43.2559 54.5839 40.3913 54.584 36.8682C54.584 33.345 51.7176 30.4805 48.1934 30.4805H40.4521C39.7092 30.4803 39.1006 29.8716 39.1006 29.1289C39.1008 28.3864 39.7093 27.7785 40.4521 27.7783H41.0361V27.7734H50.1289C54.7176 27.7734 58.454 24.0384 58.4541 19.4512C58.4541 18.7036 59.0578 18.0997 59.8057 18.0996Z" fill="#59432D" stroke="#F1D4A4" stroke-width="0.2"/>
</svg>
