<svg width="40" height="40" viewBox="0 0 40 40" fill="none" xmlns="http://www.w3.org/2000/svg">
<rect width="40" height="40" rx="20" fill="#FAE9C8"/>
<path d="M19.9999 10C14.2927 10 9.9998 12.0143 9.97559 14.7001C9.97559 15.4438 10.5515 16.2108 11.6542 16.8581L11.5104 14.9152V14.867C11.5104 14.1956 11.8702 13.5723 12.5899 12.9964C12.7337 12.8527 12.9739 12.9009 13.0935 13.0447C13.2372 13.1884 13.189 13.4286 13.0453 13.5482C12.5176 13.9563 12.2542 14.4116 12.2542 14.8429L13.0935 25.8019C14.0765 24.3625 16.5944 23.4518 19.9999 23.4518C23.4293 23.4518 25.9713 24.3635 26.9302 25.826L27.7695 14.8188C27.7454 13.3795 24.6285 11.8215 19.9997 11.8215C18.8005 11.8215 17.6255 11.9411 16.5702 12.1572C16.3783 12.1813 16.1863 12.0617 16.139 11.8697C16.1149 11.6777 16.2345 11.4858 16.4265 11.4385C17.5291 11.2224 18.7524 11.1027 19.9998 11.1027C24.7723 11.1027 28.4892 12.7572 28.4892 14.8439V14.868L28.3454 16.8341C29.4249 16.1867 30.024 15.443 30.024 14.676C30.024 12.134 25.4438 10 19.9999 10Z" fill="white"/>
<path d="M20.0241 24.1724C16.1875 24.1724 13.5007 25.3715 13.4053 27.0982C13.5249 27.3143 13.6928 27.5063 13.9089 27.65C15.3955 28.6331 16.8347 29.3045 18.1536 29.6161C18.1777 29.6161 18.2018 29.6161 18.2259 29.6402C18.7777 29.9277 19.6411 29.9759 20.2402 30C20.8634 30 21.5831 30 22.0866 29.7366C22.0625 29.7125 22.0625 29.6643 22.0625 29.6411C22.0625 29.2099 21.2473 28.8974 20.1438 28.8974C19.3768 28.8974 18.8009 29.0893 18.5134 29.2331C18.3455 29.3286 18.1294 29.2572 18.0339 29.0893C17.9384 28.9215 18.0098 28.7054 18.1777 28.6099C18.633 28.3465 19.4009 28.1786 20.1437 28.1786C21.6786 28.1786 22.7099 28.7063 22.7812 29.5215C23.9321 29.1858 25.0598 28.5867 26.2106 27.6751C26.3785 27.5554 26.5222 27.3876 26.6418 27.2197V27.1956C26.6428 25.4196 23.9331 24.1724 20.0241 24.1724Z" fill="white"/>
</svg>
