<svg width="40" height="40" viewBox="0 0 40 40" fill="none" xmlns="http://www.w3.org/2000/svg">
<rect width="40" height="40" rx="20" fill="#FAE9C8"/>
<path d="M16.151 13.6267C16.6101 12.6217 17.0443 11.6168 18.1259 11.2477C20.0729 10.5851 22.0862 11.2566 22.9441 13.2058C23.2076 13.8046 23.34 14.2656 23.9596 14.5917C24.7646 15.0171 25.2738 15.2898 25.6108 16.1081C25.7153 16.3615 25.8933 16.867 26.1479 17.6259C26.2406 17.9001 26.4526 18.1225 26.7866 18.2929C27.7123 18.7658 28.3348 19.5114 28.6527 20.5267C28.8484 21.1478 28.9279 21.6859 29.5372 21.9008C30.479 22.2328 31.5592 23.008 31.8712 24.0338C32.2877 25.4064 31.6666 26.272 30.4054 26.5996C30.1538 26.6663 29.9786 26.7226 29.883 26.7715C29.7947 26.8175 29.7093 26.8723 29.6328 26.9375C29.1354 27.36 28.7425 27.6624 28.4525 27.8447C27.8153 28.2434 27.0236 28.193 26.042 28.1308C25.8757 28.1204 25.6711 28.1604 25.4283 28.2508C24.9382 28.4361 24.5527 28.5784 24.273 28.6807C23.783 28.8601 23.2708 28.9164 22.7366 28.8482C22.6616 28.8378 22.3614 28.7607 21.8389 28.617C21.5299 28.5325 21.1546 28.534 20.7146 28.6244C20.1936 28.7296 19.5049 29.0364 18.8323 28.9964C18.1186 28.9549 17.4107 28.7385 16.7058 28.3457C16.6793 28.3324 16.6513 28.322 16.6204 28.3175L15.6447 28.1678C15.6035 28.1619 15.5623 28.1634 15.5226 28.1708C14.407 28.3887 13.087 28.3605 12.098 27.7899C11.9906 27.7291 11.7698 27.5734 11.4343 27.3229C11.2916 27.2162 11.137 27.1273 10.9722 27.0591C10.7676 26.9716 10.4012 26.8575 9.87287 26.7167C9.42843 26.5981 9.1238 26.4825 8.95897 26.3713C6.95163 25.0136 8.49835 23.2215 9.93615 22.43C10.3467 22.2032 10.6058 21.9082 10.7632 21.422C10.9987 20.6972 11.218 19.9872 11.6447 19.5855C11.7522 19.4832 11.9582 19.3098 12.2628 19.0652C12.307 19.0296 12.3408 18.9851 12.3614 18.9333C12.5631 18.4234 12.8132 17.912 13.109 17.3991C13.2783 17.1056 13.5182 16.8744 13.8272 16.7039C14.0156 16.6002 14.1466 16.4505 14.2201 16.2533C14.3585 15.8857 14.5071 15.5359 14.6661 15.2053C14.9339 14.6465 15.4534 14.1663 15.9552 13.8506C16.0406 13.7972 16.1083 13.7201 16.151 13.6267Z" fill="white"/>
</svg>
