<svg width="40" height="40" viewBox="0 0 40 40" fill="none" xmlns="http://www.w3.org/2000/svg">
<rect width="40" height="40" rx="20" fill="#59432D"/>
<path d="M31.9521 11.4233C31.5525 9.89721 29.7868 9.72171 28.6425 10.4676C28.231 10.7344 27.7922 11.0569 27.3262 11.434C25.8107 12.6589 24.0178 14.172 21.9485 15.9732C21.1694 16.6503 20.5244 17.1472 19.7666 17.7472C19.686 17.81 19.6362 17.8575 19.6172 17.8871C19.5769 17.9488 19.5923 18.0318 19.6516 18.0745C20.216 18.4824 20.6761 18.9899 21.0307 19.5958C21.103 19.7204 21.2596 19.7666 21.3888 19.7026C22.0292 19.3836 22.5924 19.0848 23.0798 18.8061C24.1968 18.1693 25.4455 17.3535 26.827 16.3574C29.252 14.6084 30.707 13.553 31.1908 13.1937C31.7671 12.7657 32.1371 12.1301 31.9521 11.4233Z" fill="white"/>
<path d="M9.91844 22.4286C10.726 22.7784 11.5572 22.999 12.4146 23.0891C13.0443 23.1555 13.9419 23.1686 15.1088 23.1282C16.1013 23.0939 16.993 22.9599 17.784 22.7251C18.5571 22.495 19.9623 21.9318 20.1509 21.1444C20.3548 20.2954 19.6351 19.6456 19.0054 19.176C18.8074 19.0289 18.6674 18.8807 18.5856 18.7313C18.2975 18.2072 17.9797 17.6641 17.3927 17.4151C17.1484 17.3119 16.7832 17.1364 16.297 16.8898C15.8167 16.6455 15.442 16.4961 15.1752 16.4415C14.8088 16.3668 14.3997 16.3894 13.9502 16.5103C13.719 16.5732 13.3633 16.7747 12.8818 17.1151C12.6956 17.2467 12.2308 17.504 11.4873 17.8858C11.2252 18.0198 10.9643 18.2843 10.7035 18.6791C10.3453 19.2222 10.0524 19.4392 9.4038 19.9906C9.15359 20.2017 8.84528 20.5895 8.79191 20.8574C8.62471 21.678 9.25438 22.1393 9.91844 22.4286Z" fill="white"/>
<path d="M20.9599 22.2971C20.0148 23.1983 18.714 23.7047 17.4771 24.0213C15.3593 24.5632 13.0979 24.6545 10.9563 24.1683C10.6587 24.1007 10.3385 24.0047 9.99343 23.879C9.29024 23.6217 8.61432 23.3323 8.09493 22.8224C8.05817 22.7869 7.9977 22.8141 8.00007 22.8639C8.00363 22.9647 8.01904 23.3098 8.04513 23.898C8.10086 25.1869 8.66887 26.4818 9.43965 27.5028C10.1025 28.3803 10.9231 29.0206 11.9014 29.425C13.124 29.9313 14.3312 30.0783 15.5205 29.8661C19.1598 29.2174 21.1888 25.8403 21.0358 22.3268C21.0334 22.2888 20.9884 22.271 20.9599 22.2971Z" fill="white"/>
</svg>
