<svg width="64" height="64" viewBox="0 0 64 64" fill="none" xmlns="http://www.w3.org/2000/svg">
<g clip-path="url(#clip0_16990_468)">
<path d="M61.4032 32.0002L63.8272 27.8845C64.0548 27.498 64.0581 27.0193 63.8353 26.6299C63.6128 26.2405 63.1986 26.0002 62.7501 26.0002H55.8858V7.32617C55.8858 6.99467 55.7541 6.67667 55.5197 6.4423C55.2852 6.20792 54.9672 6.07617 54.6358 6.07617L9.37531 6.07817C8.68968 6.07817 8.13206 6.63042 8.12543 7.31605L8.11431 8.47342V26.0002H1.25006C0.801558 26.0002 0.387433 26.2404 0.164808 26.6299C-0.0578174 27.0193 -0.0546924 27.498 0.172933 27.8845L2.59693 32.0002L0.172933 36.1158C-0.0546924 36.5023 -0.0578174 36.981 0.164808 37.3704C0.387433 37.7599 0.801558 38.0002 1.25006 38.0002H8.44468C10.3377 49.2918 20.1789 57.9242 32.0001 57.9242C43.8212 57.9242 53.6623 49.2918 55.5553 38.0002H62.7501C63.1986 38.0002 63.6127 37.7599 63.8353 37.3704C64.0579 36.981 64.0548 36.5023 63.8272 36.1158L61.4032 32.0002ZM3.43693 35.5002L5.12468 32.6345C5.35518 32.243 5.35518 31.7573 5.12468 31.3659L3.43693 28.5002H8.11431V34.0384C8.11431 34.5294 8.13106 35.0164 8.16031 35.5002H3.43693ZM32.0001 55.4242C20.2079 55.4242 10.6143 45.8305 10.6143 34.0385V8.57817L53.3858 8.5763V34.0384C53.3858 45.8305 43.7922 55.4242 32.0001 55.4242ZM58.8754 32.6345L60.5632 35.5002H55.8398C55.8692 35.0164 55.8858 34.5294 55.8858 34.0384V28.5002H60.5632L58.8754 31.3658C58.6448 31.7573 58.6448 32.243 58.8754 32.6345Z" fill="#59432D"/>
<path d="M28.9872 30.4746C28.3754 30.4751 27.8413 30.8507 27.6263 31.4315C27.623 31.4402 27.6199 31.4491 27.6168 31.458L24.217 41.3171C23.992 41.9697 24.3387 42.6812 24.9913 42.9062C25.1263 42.9529 25.2637 42.9749 25.3988 42.9749C25.9173 42.9749 26.4019 42.6496 26.5804 42.132L27.1365 40.5191H30.8142L31.3642 42.1287C31.5874 42.782 32.2978 43.1304 32.9512 42.9074C33.6045 42.6841 33.9532 41.9736 33.7298 41.3204L30.3609 31.4609C30.3573 31.4502 30.3534 31.4396 30.3495 31.429C30.1337 30.8491 29.5995 30.4746 28.9883 30.4746C28.988 30.4746 28.9875 30.4746 28.9872 30.4746ZM27.9987 38.0191L28.9838 35.1622L29.9599 38.0191H27.9987Z" fill="#59432D"/>
<path d="M18.6421 30.6226H16.1436C15.8116 30.6226 15.4933 30.7546 15.2588 30.9896C15.0243 31.2246 14.8929 31.5432 14.8936 31.8751L14.9133 41.5793C14.9139 41.9113 15.0467 42.2294 15.2823 42.4634C15.5166 42.6962 15.8333 42.8267 16.1633 42.8267H16.1687C16.2416 42.8264 17.9613 42.8188 18.7442 42.8052C21.6799 42.7538 23.8108 40.1967 23.8108 36.7246C23.8108 33.0748 21.7337 30.6226 18.6421 30.6226ZM18.7006 40.3056C18.3782 40.3112 17.8806 40.3158 17.4107 40.3193L17.3961 33.1226H18.6419C19.0876 33.1226 21.3108 33.2962 21.3108 36.7247C21.3108 39.1669 19.9999 40.2829 18.7006 40.3056Z" fill="#59432D"/>
<path d="M40.1275 30.6694C39.5303 30.3225 38.7655 30.5254 38.4187 31.1223L36.6706 34.1313L34.9015 31.0955C34.5541 30.4992 33.7891 30.297 33.1921 30.6449C32.5957 30.9925 32.3938 31.7578 32.7416 32.3543L35.4215 36.9532L35.4111 41.7223C35.4096 42.4127 35.968 42.9735 36.6585 42.975H36.6612C37.3502 42.975 37.9096 42.4172 37.9111 41.7278L37.9215 36.9549L40.5803 32.3783C40.9271 31.7813 40.7243 31.0162 40.1275 30.6694Z" fill="#59432D"/>
<path d="M47.1805 35.6306C45.9522 35.1775 44.8086 34.6841 44.4577 34.5304C44.1855 34.3116 44.1947 34.0067 44.2128 33.8796C44.2382 33.7031 44.3665 33.2717 45.0083 33.0785C46.4161 32.6542 47.7212 33.6834 47.7602 33.7146C48.2888 34.1529 49.0726 34.0832 49.5151 33.5567C49.9593 33.0282 49.891 32.2397 49.3625 31.7956C49.268 31.7162 47.0187 29.862 44.2872 30.6846C42.9066 31.1005 41.93 32.1886 41.7381 33.5242C41.5582 34.7775 42.1015 35.9831 43.1558 36.6706C43.2111 36.7066 44.7642 37.4039 46.3151 37.976C46.7536 38.1376 47.759 38.594 47.6262 39.3374C47.5265 39.8962 46.8458 40.4743 45.8793 40.4743C45.0862 40.4743 44.318 40.2214 43.716 39.7617C43.1667 39.3426 42.3826 39.4482 41.9638 39.9967C41.5448 40.5455 41.6501 41.3299 42.1988 41.7487C43.234 42.539 44.5411 42.9742 45.8792 42.9742C47.9866 42.9742 49.7563 41.6295 50.0871 39.7766C50.3365 38.3826 49.7035 36.5611 47.1805 35.6306Z" fill="#59432D"/>
<path d="M39.0799 46.8584H24.9204C24.23 46.8584 23.6704 47.418 23.6704 48.1084C23.6704 48.7988 24.23 49.3584 24.9204 49.3584H39.0798C39.77 49.3584 40.3298 48.7988 40.3298 48.1084C40.3298 47.418 39.7702 46.8584 39.0799 46.8584Z" fill="#59432D"/>
<path fill-rule="evenodd" clip-rule="evenodd" d="M38.3382 12.6235C35.7751 12.6235 33.688 14.7127 33.688 17.281V22.9428C33.688 25.5111 35.775 27.6001 38.3382 27.6001C40.9013 27.6001 42.9882 25.5111 42.9882 22.9428V17.281C42.9882 14.7127 40.9014 12.6235 38.3382 12.6235ZM40.7542 22.943C40.7542 24.2781 39.6721 25.3663 38.3382 25.3663C37.0041 25.3663 35.9219 24.2783 35.9219 22.943V17.2812C35.9219 15.9459 37.0041 14.8576 38.3382 14.8576C39.6721 14.8576 40.7542 15.9457 40.7542 17.2812V22.943Z" fill="#59432D"/>
<path fill-rule="evenodd" clip-rule="evenodd" d="M26.085 12.8438C26.5796 12.4758 27.2791 12.5784 27.6475 13.0733C28.0147 13.5672 27.9135 14.2649 27.4219 14.6339L27.4199 14.6349C27.3658 14.676 26.1825 15.6004 25.083 17.3204L24.6484 18.0001L25.4531 17.9347C25.5883 17.9236 25.7214 17.9161 25.8535 17.9161C28.5229 17.9162 30.6953 20.0886 30.6953 22.7579C30.6953 25.4273 28.5229 27.5997 25.8535 27.5997C23.1841 27.5997 21.0117 25.4273 21.0117 22.7579C21.0117 22.4999 21.0331 22.2463 21.0723 21.9981L21.0732 21.9845C21.7946 16.0964 25.9314 12.9581 26.085 12.8438ZM25.8535 20.1505C24.4151 20.1505 23.2452 21.3195 23.2451 22.7579C23.2451 24.1964 24.4152 25.3663 25.8535 25.3663C27.2919 25.3662 28.4609 24.1963 28.4609 22.7579C28.4609 21.3196 27.2918 20.1506 25.8535 20.1505Z" fill="#59432D"/>
</g>
<defs>
<clipPath id="clip0_16990_468">
<rect width="64" height="64" fill="white"/>
</clipPath>
</defs>
</svg>
