<svg width="1440" height="80" viewBox="0 0 1440 80" fill="none" xmlns="http://www.w3.org/2000/svg">
<path d="M1440 76.3301C1433.43 74.4177 1427.14 71.8074 1421.26 68.551C1392.12 52.3468 1357.06 52.3468 1327.92 68.551C1314.8 75.8391 1299.71 80 1283.67 80C1267.62 80 1252.54 75.8391 1239.42 68.551C1210.28 52.3468 1175.21 52.3468 1146.07 68.551C1132.95 75.8391 1117.87 80 1101.82 80C1085.78 80 1070.69 75.8391 1057.57 68.551C1028.43 52.3468 993.366 52.3468 964.227 68.551C951.106 75.8391 936.019 80 919.975 80C903.93 80 888.843 75.8391 875.723 68.551C846.584 52.3468 811.519 52.3468 782.38 68.551C769.259 75.8391 754.172 80 738.128 80C722.083 80 706.97 75.8391 693.876 68.551C664.737 52.3468 629.672 52.3468 600.533 68.551C587.412 75.8391 572.325 80 556.281 80C540.236 80 525.149 75.8391 512.029 68.551C482.89 52.3468 447.825 52.3468 418.686 68.551C405.565 75.8391 390.478 80 374.434 80C358.389 80 343.302 75.8391 330.182 68.551C301.043 52.3468 265.978 52.3468 236.839 68.551C223.718 75.8391 208.631 80 192.587 80C176.542 80 161.455 75.8391 148.335 68.551C119.196 52.3468 84.1305 52.3468 54.9915 68.551C41.7935 75.8391 26.7064 80 10.6619 80C7.06479 80 3.49358 79.7674 0 79.3539V0H1440V76.3301Z" fill="#D4E7ED"/>
</svg>
