<svg width="40" height="40" viewBox="0 0 40 40" fill="none" xmlns="http://www.w3.org/2000/svg">
<rect width="40" height="40" rx="20" fill="#59432D"/>
<path d="M22.3389 18.7046C21.707 19.2733 20.9803 19.842 20.2535 20.2844C19.7796 20.6003 19.3373 20.8531 18.8633 21.2322C18.5158 21.5166 18.2314 21.801 17.8522 22.0853C16.9991 22.9068 16.2092 23.8547 15.6721 24.8658C14.977 26.1296 14.4399 27.5198 14.3451 29.0048C14.3451 29.068 14.3767 29.1312 14.3135 29.1628C14.4083 29.226 14.4083 29.226 14.4715 29.2576C18.0102 31.3429 23.3184 28.8785 26.3832 23.8231C28.9741 19.3997 29.0689 14.5023 26.7939 11.8483C26.4148 13.2701 25.7829 14.5971 24.9614 15.8293C24.2662 16.872 23.35 17.8515 22.3389 18.7046Z" fill="white"/>
<path d="M13.2391 28.215C13.6182 26.7932 14.2186 25.403 15.0085 24.2023C15.672 23.1597 16.4303 22.1486 17.2834 21.2639C17.7889 20.7268 18.2945 20.1896 18.8948 19.7789C19.2424 19.4945 19.6215 19.3366 20.0007 19.0522C20.7906 18.5151 21.5805 17.9463 22.3072 17.2196C23.2235 16.3981 24.045 15.3555 24.6453 14.2496C24.9297 13.6809 25.1824 13.1438 25.372 12.4802C25.4352 12.1959 25.53 11.8799 25.5932 11.5324C25.6248 11.3744 25.6564 11.1848 25.6248 11.0268C25.6248 11.0268 25.6564 10.8689 25.6564 10.8057L25.5616 10.7425C22.0228 8.65714 16.7147 11.1216 13.6498 16.177C10.9642 20.6004 10.9642 25.5609 13.2391 28.215Z" fill="white"/>
</svg>
