<svg width="88" height="66" viewBox="0 0 88 66" fill="none" xmlns="http://www.w3.org/2000/svg">
<path d="M0.693863 21.9403C4.27553 3.92738 29.4964 -0.187653 41.6591 0.006452C47.8524 0.006452 63.2834 1.20991 75.4609 6.0237C90.6828 12.041 92.2499 27.7635 79.0425 43.8742C65.8353 59.9849 41.6591 69.1079 28.004 65.0317C14.349 60.9555 -3.78321 44.4565 0.693863 21.9403Z" fill="#F1D4A4"/>
<path d="M64.2729 27.8143C63.525 25.322 60.5812 17.1679 54.1025 16.8882C52.2509 16.8114 50.8587 17.4692 49.8275 18.439C47.843 17.3193 45.6406 16.1661 43.377 16.0203C41.5376 15.9007 36.7073 16.1505 33.5035 21.2815C30.4849 21.2514 27.9195 22.7401 26.2711 24.0484C21.6962 27.6939 20.9397 33.8812 23.3183 36.9758C23.7132 37.4927 24.169 37.9259 24.6682 38.2738C24.5806 41.411 25.6429 43.738 27.6434 44.6794C28.2645 44.972 28.937 45.1153 29.6406 45.1149C31.2687 45.1149 33.059 44.3385 34.7503 42.8797C35.6122 43.2853 36.6083 43.462 37.6176 43.462C38.7484 43.462 39.8849 43.2595 40.8307 42.9711C41.6819 42.7114 42.8946 42.1721 44.1509 41.5593C46.6453 43.6182 47.8932 48.7377 47.9057 48.7915C47.9485 48.9712 48.0546 49.1294 48.2043 49.2375C48.909 49.7449 49.625 50 50.3414 50C50.5822 50 50.8233 49.9711 51.0641 49.913C52.8632 49.4805 53.883 47.531 53.9258 47.4481C54.012 47.28 54.0334 47.0858 53.9857 46.9027L53.3244 44.3634C55.4859 43.9858 57.3622 42.3922 58.7174 39.7702C59.4294 40.0617 60.0964 40.2119 60.7142 40.2118C61.4054 40.2118 62.037 40.0291 62.6067 39.663C65.593 37.7431 65.3661 31.4576 64.2729 27.8143ZM28.2975 43.2895C27.0203 42.6882 26.2849 41.1698 26.1995 39.057C27.0876 39.3715 28.0179 39.4961 28.922 39.4961C30.1301 39.4961 31.2872 39.2817 32.2284 39.0318C32.2581 39.2635 32.2937 39.497 32.3392 39.7328C32.5126 40.6324 32.897 41.3694 33.4578 41.9583C31.6193 43.43 29.6938 43.947 28.2975 43.2895ZM61.7757 38.3706C60.2387 39.3596 57.7997 37.7135 56.0254 36.1585C55.7055 35.8784 55.2205 35.9106 54.9415 36.2298C54.6617 36.5489 54.6939 37.0343 55.0128 37.3137C55.8331 38.0326 56.6125 38.6174 57.3502 39.0692C56.468 40.78 55.0547 42.569 52.9353 42.8685L52.2108 40.0865C52.1042 39.6758 51.6835 39.4279 51.2746 39.5359C50.8639 39.6424 50.6175 40.0618 50.724 40.4721L52.4186 46.9812C52.1526 47.3933 51.5293 48.2211 50.7049 48.4195C50.2646 48.5261 49.8097 48.4338 49.3251 48.139C49.0257 47.014 47.8508 43.0638 45.6223 40.8208C47.7106 39.7455 49.5771 38.684 49.7166 38.6043C50.085 38.3943 50.2132 37.9251 50.0032 37.5564C49.7931 37.1881 49.3231 37.0587 48.9552 37.2699C48.8945 37.3048 42.8343 40.7538 40.3822 41.5017C38.8438 41.9705 36.542 42.215 35.1198 41.3584C34.4323 40.9443 34.0164 40.3172 33.8476 39.4419C33.6333 38.3304 33.6315 37.2751 33.8128 36.3192C34.6837 36.8537 35.8631 37.2835 37.432 37.2835C37.8618 37.2835 38.3204 37.2512 38.8088 37.1807C39.2289 37.12 39.5199 36.7303 39.4592 36.3106C39.3984 35.8909 39.0088 35.6025 38.5891 35.6602C36.8469 35.9128 35.407 35.6212 34.298 34.8007C34.8551 33.6131 35.7718 32.6884 36.9955 32.1741C39.3628 31.1791 42.7818 30.879 45.6142 35.1074C45.8501 35.4595 46.3268 35.5537 46.6798 35.3177C47.0323 35.0819 47.1264 34.6048 46.8901 34.2522C46.0576 33.0094 45.1747 32.1132 44.2809 31.4639C45.0043 31.0359 46.1195 30.493 47.5109 30.1728C47.5866 30.1672 47.6594 30.1516 47.7294 30.1246C50.056 29.6397 53.1117 29.8035 56.4071 32.1196C56.5418 32.2138 56.6956 32.2591 56.8482 32.2591C57.0901 32.2591 57.3279 32.1455 57.4775 31.9328C57.7213 31.5856 57.6377 31.1066 57.2907 30.8624C56.6674 30.4245 56.0511 30.0627 55.4427 29.7545C57.2201 29.158 59.3016 27.9495 59.4964 25.5275C59.5305 25.1048 59.2155 24.7343 58.7924 24.7005C58.3626 24.6596 57.9992 24.9814 57.9654 25.4045C57.7493 28.0858 53.5445 28.6888 52.8598 28.7693C50.9053 28.2653 49.1025 28.3234 47.5623 28.63C46.1489 28.0977 45.2844 27.4046 45.0695 26.6174C44.79 25.5957 45.6155 24.5872 45.6238 24.5771C45.8957 24.2538 45.8556 23.7715 45.5334 23.4976C45.2105 23.2227 44.7255 23.2614 44.451 23.5854C44.3955 23.6503 43.1004 25.2015 43.5831 27.0059C43.819 27.8882 44.4286 28.6416 45.3881 29.263C44.1739 29.7326 43.2734 30.2788 42.79 30.6058C40.3179 29.5406 37.9193 30.1192 36.3996 30.7576C33.7685 31.8636 32.2242 34.3792 32.145 37.4607C30.4623 37.9501 27.8181 38.3934 25.8298 37.1992C25.3438 36.9171 24.9091 36.5282 24.5374 36.0414C22.6314 33.5615 23.3916 28.307 27.227 25.2507C28.5166 24.2276 30.4369 23.0769 32.6532 22.8493C32.2193 23.7723 31.8307 24.8113 31.5077 25.9946C29.5829 27.4705 27.3457 27.0747 27.2937 27.0648C26.8796 26.9834 26.475 27.2501 26.3906 27.6649C26.3062 28.0805 26.5747 28.4863 26.9903 28.5707C27.0357 28.5801 27.4539 28.6611 28.0899 28.6611C28.8509 28.6611 29.9246 28.5357 31.0434 28.0418C30.8889 28.8707 30.7602 29.752 30.665 30.6973C30.6226 31.1192 30.9306 31.4958 31.3525 31.5385C31.3788 31.5412 31.4047 31.5423 31.4302 31.5423C31.8198 31.5423 32.1537 31.2471 32.1937 30.8511C32.5442 27.3691 33.3291 24.7841 34.3413 22.8661C34.987 22.9473 35.6247 23.1107 36.2494 23.3643C35.9391 24.4365 35.5581 26.5138 36.5234 28.3491C36.6611 28.6105 36.9278 28.7598 37.2042 28.7598C37.3245 28.7598 37.4468 28.7317 37.5609 28.6717C37.9363 28.4741 38.0807 28.0098 37.8834 27.6343C37.2435 26.4179 37.4304 24.9702 37.6502 24.0775C38.2916 24.4738 38.9307 24.9658 39.5584 25.5572C39.8664 25.8471 40.3536 25.8333 40.6442 25.5246C40.9349 25.2159 40.9207 24.7298 40.6116 24.4388C39.6143 23.4993 38.5795 22.7649 37.5447 22.2609L37.5421 22.2597C37.5279 22.2526 37.5187 22.2398 37.5039 22.2335C37.4913 22.2282 37.4781 22.2302 37.4654 22.2256C36.734 21.8653 35.9782 21.6121 35.2087 21.4546C37.8288 17.7792 41.3921 17.4301 43.2786 17.5536C45.1198 17.672 47.0496 18.6451 48.8209 19.6355C47.9153 20.9877 47.4667 22.5615 47.345 23.6883C47.2996 24.1103 47.6046 24.4891 48.0261 24.5345C48.4526 24.5791 48.8269 24.2753 48.8723 23.8534C48.8867 23.7211 49.104 21.8849 50.1422 20.3823C51.9239 21.3884 53.4802 22.1908 54.7869 21.9628C55.2047 21.8904 55.4849 21.4928 55.4125 21.0746C55.3402 20.6568 54.9418 20.3785 54.5243 20.449C53.7896 20.5786 52.5787 19.982 51.238 19.2351C51.9455 18.713 52.8551 18.3752 54.0364 18.4229C58.3795 18.6108 61.4119 23.6253 62.801 28.2562C63.9244 31.9976 63.7241 37.1179 61.7757 38.3706Z" fill="#59432D" stroke="#59432D" stroke-width="0.5"/>
</svg>
