<svg width="88" height="66" viewBox="0 0 88 66" fill="none" xmlns="http://www.w3.org/2000/svg">
<path d="M0.693863 21.9403C4.27553 3.92738 29.4964 -0.187653 41.6591 0.006452C47.8524 0.006452 63.2834 1.20991 75.4609 6.0237C90.6828 12.041 92.2499 27.7635 79.0425 43.8742C65.8353 59.9849 41.6591 69.1079 28.004 65.0317C14.349 60.9555 -3.78321 44.4565 0.693863 21.9403Z" fill="#F1D4A4"/>
<path d="M38 48.002H50.0003" stroke="#59432D" stroke-width="2.5" stroke-linecap="round" stroke-linejoin="round"/>
<path d="M44 43.2328V34.8867" stroke="#59432D" stroke-width="2.5" stroke-linecap="round" stroke-linejoin="round"/>
<path d="M39.2002 30.1174L44.0003 34.8866L48.8004 30.1174" stroke="#59432D" stroke-width="2.5" stroke-linecap="round" stroke-linejoin="round"/>
<path d="M36.6052 38.3156C35.1765 37.2119 34.0195 35.7996 33.2216 34.1858C32.4237 32.5719 32.006 30.7988 32.0001 29.0008C31.9701 22.5326 37.2052 17.1524 43.7154 17.0034C46.2349 16.944 48.7093 17.6743 50.7877 19.0907C52.866 20.5071 54.4427 22.5377 55.2942 24.8944C56.1458 27.2512 56.2289 29.8145 55.5319 32.2208C54.8347 34.6271 53.3928 36.7543 51.4106 38.3007C50.9726 38.637 50.618 39.0683 50.3736 39.5617C50.1292 40.0551 50.0016 40.5974 50.0005 41.1473V42.0415C50.0005 42.3577 49.874 42.6609 49.649 42.8845C49.424 43.1082 49.1187 43.2338 48.8005 43.2338H39.2003C38.882 43.2338 38.5768 43.1082 38.3517 42.8845C38.1267 42.6609 38.0003 42.3577 38.0003 42.0415V41.1473C37.9965 40.6015 37.8691 40.0636 37.6276 39.5734C37.3862 39.0832 37.0367 38.6533 36.6052 38.3156Z" stroke="#59432D" stroke-width="2.5" stroke-linecap="round" stroke-linejoin="round"/>
</svg>
