<svg width="661" height="173" viewBox="0 0 661 173" fill="none" xmlns="http://www.w3.org/2000/svg">
<g clip-path="url(#clip0_9_72819)">
<g clip-path="url(#clip1_9_72819)">
<path d="M55.6449 55.4003C56.0226 55.7151 56.4632 56.4706 56.9668 57.4149C57.2815 57.9185 57.9739 59.2406 57.9739 59.6183L58.6663 61.5069C58.5404 61.5699 58.0998 61.8217 57.5962 62.2624C57.0297 62.5772 56.5891 62.829 56.2744 63.2067C55.519 63.4585 54.4489 63.8992 53.4418 64.4658C53.0012 64.7176 52.4346 65.0324 51.6793 65.2842C50.9239 65.5361 50.3574 65.8508 49.9168 66.1027L44.8811 68.369L48.532 75.2941L51.3645 80.0786L52.3717 81.9043L54.0083 84.8003C54.1971 84.8003 54.386 85.115 54.5748 85.4928L54.9525 86.8148C55.7708 87.948 56.5891 89.396 57.6592 91.3476L59.6105 94.936C61.3101 97.9578 62.3172 99.7835 62.8837 100.539C63.0096 100.791 63.0096 101.169 63.3244 101.357C63.3873 101.483 63.3873 101.861 63.6391 101.861L63.8909 102.239C64.0168 102.491 64.3315 102.679 64.2686 102.868C64.4574 102.868 64.3944 103.498 64.898 104.064L66.7235 103.057C67.3529 102.554 67.9194 102.239 68.3601 101.987L72.1998 99.8465C72.7034 99.7206 73.5217 99.2799 74.8435 98.5874C75.536 98.2096 76.2284 98.7133 76.8578 99.9094L77.0467 100.287C77.4873 100.728 78.0538 101.798 78.998 103.498L79.6275 104.694C80.194 106.457 80.2569 107.464 79.8793 107.842C78.9351 108.534 77.9909 109.101 76.9837 109.604L74.9694 110.738L73.3958 111.619L72.7034 111.997C72.3886 112.186 72.2627 112.249 72.1998 112.437C71.8221 112.815 71.1927 113.697 71.0038 114.326C70.9409 114.515 71.3185 114.83 71.5703 115.396C71.8851 115.9 72.1998 116.215 72.1998 116.592L73.144 118.292L74.6547 121.062L75.9136 123.329L76.669 124.651L77.2985 125.847C78.5574 128.113 79.3757 130.254 80.8864 133.024L81.7676 134.598L84.915 140.264L87.6217 145.111C87.8734 145.866 88.5029 147.063 89.3842 148.637L90.0136 149.833L90.8949 151.407L92.2797 153.925L93.7904 156.695L94.3569 157.765C93.8533 158.52 93.2239 159.087 92.5315 159.465L92.0909 159.717L90.6431 160.472L89.9507 160.85L88.2511 161.794C87.3699 162.235 86.6775 162.675 86.2998 163.053L85.4185 162.864H84.852C84.7891 162.738 84.7261 162.55 84.4743 162.55L84.0967 161.92L83.719 161.29C83.656 160.787 83.4672 160.535 83.3413 160.283C83.2784 160.157 82.9636 159.654 82.5859 158.646C82.2083 157.639 81.7047 156.695 81.2011 155.813C81.1382 155.373 80.6976 154.554 80.0051 153.358L78.4944 150.588L77.2355 148.322L75.2842 144.796C74.5288 143.159 72.6404 139.697 69.7449 134.409L58.2886 113.697L55.9596 108.786L53.19 104.127L50.5462 99.4058C47.0212 93.0473 43.8739 87.7591 40.1601 81.023C39.9083 80.2675 39.2788 79.0714 38.4605 77.6234L37.7052 76.3013C36.8869 74.8534 34.1802 70.3206 32.6065 67.4247C31.7882 65.9767 31.2217 64.9065 31.3476 64.8436L35.8797 62.3254C37.6422 61.5069 39.1529 60.8774 40.286 60.2478C41.3561 59.8072 42.1114 59.5553 42.6779 59.2406C42.9927 59.0517 43.3704 58.8628 43.748 58.4851L45.007 57.7926C45.5105 57.6667 47.0212 57.0372 49.7279 55.904C51.4904 55.0856 52.6864 54.5819 53.127 54.3301C53.7565 54.1412 54.5748 54.5819 55.3302 55.6521" fill="black"/>
<path d="M133.069 32.9881C133.509 34.7509 134.139 36.8913 134.768 39.8502L135.713 44.1312L136.09 45.4532L136.468 46.9012C136.846 48.2232 137.223 49.6712 137.853 51.4969L138.419 53.5114L139.3 56.7221C139.678 57.4146 139.741 58.4849 140.308 59.8699L141.189 63.2065L141.755 65.4099L142.637 68.7465L143.203 70.7611L143.455 71.7683L143.581 72.209C143.707 72.6497 143.896 73.4052 144.21 74.0347L144.714 75.9234L144.84 76.3641L145.029 77.5602C145.847 80.0154 146.98 84.3593 148.617 90.34C150.19 96.3207 151.512 100.665 152.33 103.686C152.834 104.946 153.086 105.827 153.212 106.268V106.394C153.526 106.771 153.652 107.338 153.904 108.093L154.156 108.975L154.282 109.415L154.471 110.171L154.596 110.611C154.848 110.989 154.974 111.304 154.974 111.43C157.87 118.607 159.569 120.37 160.576 121.188C162.213 122.321 164.038 122.762 166.053 122.195H166.242C169.389 121.314 172.033 119.992 173.732 115.459C174.173 113.319 174.613 111.808 174.299 108.786C174.299 108.66 174.236 108.471 174.299 108.03C174.299 107.527 174.299 107.275 174.173 106.834C173.606 103.372 172.725 99.4055 171.781 94.6839L170.207 88.7032C169.578 85.7443 169.011 83.5409 168.759 81.9041L167.375 76.1752L166.682 73.5311L165.99 70.3204L164.416 64.4656L163.661 60.9401L161.458 52.6301L160.199 47.8455C158.814 42.6202 157.303 36.3248 156.8 34.4361L155.918 31.0995L155.729 30.344L155.037 27.0704C154.471 25.6854 154.219 24.6151 154.03 23.9226L153.589 22.1599C153.715 21.971 154.156 21.7192 155.1 21.4674L155.604 21.3415L159.632 20.586C160.513 20.2083 161.332 19.9565 161.772 19.8306C162.402 19.6417 162.717 19.5788 162.905 19.7047C163.535 20.7749 164.038 22.034 164.668 23.7338L165.612 27.1963L166.179 29.2109C166.745 31.4143 167.186 32.9881 167.689 34.2472L168.319 37.8357L169.263 41.2982C169.515 42.3055 170.207 44.8237 171.34 48.4121L171.529 48.9787C171.655 49.4194 171.781 49.986 172.159 50.8044L172.473 52.5671L172.662 53.1337C172.788 53.5744 173.04 54.4558 173.48 55.5889L174.047 57.7924L175.18 62.6399L177.572 72.1461L178.705 76.9936L180.027 82.5966C180.342 83.1632 180.53 83.8557 180.782 84.7371L181.034 86.3739L181.412 87.8218C181.412 88.3255 181.6 89.018 181.789 90.403C181.915 91.5991 182.167 92.3546 182.23 92.7953L183.111 97.2651C184.181 102.616 184.874 107.59 184.748 112.248C184.685 113.193 184.37 114.704 183.929 116.655C182.922 119.236 182.356 120.81 182.23 120.999C182.23 121.503 181.789 121.88 181.16 122.699C180.53 123.517 180.216 124.21 180.027 124.713C179.083 126.224 177.635 127.672 175.621 128.994C173.417 130.19 171.34 131.261 169.137 131.827H168.822C166.808 132.457 165.109 132.583 163.787 132.646C162.465 132.646 160.891 132.457 159.066 132.016C157.24 131.387 155.604 130.316 153.841 128.239C152.33 126.287 150.505 123.832 148.805 120.684C145.155 114.011 142.007 104.694 138.86 92.9212L137.79 89.018L127.215 49.4194L124.13 38.5282V38.2134C124.067 38.2134 123.753 36.4507 123.753 36.4507C123.375 35.7582 123.249 35.1916 123.186 34.8768C123.186 34.7929 123.207 34.6879 123.249 34.562C123.06 33.8066 122.871 33.24 122.934 32.7993C122.683 32.5475 122.62 32.2327 122.557 31.9809C122.305 31.6031 122.179 31.2884 122.179 31.1625L121.99 30.5959C121.99 30.4699 122.809 29.9034 124.445 29.1479C124.634 29.1479 125.452 29.022 126.585 28.8961C127.718 28.7702 128.851 28.5813 129.796 28.8331L130.425 28.6443C131.558 28.3295 132.25 28.4554 132.439 29.2109C132.754 29.7774 133.069 31.0365 133.572 32.7993" fill="black"/>
<path d="M212.759 15.361C214.647 18.6976 216.221 23.9229 217.48 30.9109C217.606 31.6663 217.794 32.6736 217.857 34.0586L218.361 37.0175C218.928 40.1652 219.305 41.4243 219.494 42.4945C219.683 43.3759 219.62 44.1314 219.62 46.1459C219.62 47.2162 219.746 47.7828 219.809 48.2234C219.809 49.4196 219.809 51.1194 219.746 53.4487C219.746 60.1849 218.613 65.7249 217.165 69.9429C216.41 72.3352 214.71 74.9793 212.066 77.6863L218.865 79.8897C221.823 80.7711 224.026 83.1004 225.663 86.6889C227.299 90.2143 228.747 95.8173 230.006 103.057C230.761 107.338 231.265 110.36 231.454 112.123C231.706 113.759 231.894 114.767 231.894 115.585C232.083 116.781 232.398 117.474 232.65 117.914C232.146 118.607 231.391 119.048 230.384 119.237H230.069L227.048 119.803L225.474 120.055C223.837 120.181 223.019 120.055 222.893 119.614C222.893 119.299 222.515 117.411 222.075 113.948L221.508 110.549C221.131 108.345 220.753 106.079 220.186 103.876C218.55 97.2653 217.291 92.9214 216.284 91.0957C215.34 89.27 213.703 87.6962 211.374 86.4371C207.849 85.052 205.583 84.4225 204.45 84.6114C204.261 84.6114 204.198 85.115 204.198 85.8705C204.261 86.3111 204.324 87.5073 204.639 89.4589L205.268 93.1732C206.212 97.4542 206.653 99.9724 206.779 101.043C207.597 105.638 208.164 109.038 208.353 111.052C208.415 111.493 208.541 112.06 208.856 113.067C208.982 113.634 209.171 114.074 209.234 114.389C209.297 114.83 209.234 115.144 209.234 115.333L209.486 116.655L209.863 118.859C209.863 118.985 209.926 119.299 210.178 119.74L210.304 120.496L210.43 121.062C210.304 121.251 210.304 121.377 210.367 121.566C210.43 122.007 209.548 122.636 207.723 123.392C207.094 123.643 206.149 123.832 204.89 124.021C201.365 124.651 199.54 124.651 199.288 124.021C198.974 123.329 198.722 121.818 198.344 119.614C198.218 119.048 197.022 111.241 194.945 96.321C194.756 95.1248 194.567 93.1732 194.315 90.5921L194.001 88.6405L193.245 84.4855L192.301 79.0084C191.986 76.4272 191.672 74.3497 191.42 72.9018C191.42 72.587 191.294 72.1463 191.42 71.7056L191.231 70.6983L191.042 69.6281C190.79 69.1874 190.728 68.9356 190.728 68.6208C190.665 68.1801 190.539 67.4247 190.539 66.6692L190.224 65.0324L190.098 64.151C189.909 62.1994 189.783 60.4996 189.594 59.4924C189.217 58.3592 188.965 56.7224 188.524 54.456L186.699 44.0684L185.881 39.4727C185.377 36.6397 185.188 34.5622 185.125 33.1772C184.685 31.6034 184.307 30.5331 184.244 29.9665C184.181 29.5258 184.055 28.9592 184.055 28.0149L183.678 25.9374C183.552 24.4265 183.237 22.4749 182.859 20.2715C182.167 15.4869 182.23 12.9058 182.985 12.4651L186.132 11.4578C188.21 10.9542 189.72 10.3876 190.476 9.94688C190.979 9.88392 191.609 9.75801 192.553 9.75801C193.56 9.75801 194.19 9.6321 194.63 9.56915C195.134 9.50619 195.574 9.38028 195.889 9.19142C196.204 9.19142 196.707 9.06551 197.337 9.06551C198.155 9.06551 198.785 8.9396 199.288 9.06551L200.736 8.81369C202.058 8.75073 203.38 8.9396 204.953 9.31733C208.227 10.1357 210.933 12.2762 212.759 15.424M192.238 19.7049C192.238 20.901 192.301 22.1601 192.49 23.1674C192.679 24.2376 193.371 27.4483 194.63 32.7365C195.889 38.0248 196.896 42.7464 197.652 47.0903C199.54 57.7926 200.673 64.4658 201.303 66.984C201.554 67.5506 201.743 68.432 201.932 69.6281L202.121 70.6983C202.373 71.2649 202.813 71.6427 203.002 72.0833L203.694 72.2722C205.205 71.3908 206.653 69.4392 207.912 66.3545C209.171 63.2067 209.737 59.7442 210.493 55.5262C210.744 53.1969 210.682 50.7416 210.367 48.2234L209.926 45.8312C209.674 44.3202 209.674 42.4945 209.36 40.6059C209.234 40.0393 208.982 39.2838 208.856 38.7173C208.101 35.1918 207.408 32.3588 207.157 30.7849C206.338 26.0633 204.89 22.4749 203.002 20.2085C201.995 19.0124 200.673 18.194 199.099 17.6903C198.596 17.6274 197.903 17.4385 196.959 17.6274C196.078 17.4385 195.323 17.6274 194.819 17.5644C194.441 18.0681 194.064 18.0051 193.749 18.0681C193.56 18.0681 193.308 18.3199 193.119 18.194C192.679 18.4458 192.301 19.0753 192.301 20.0197" fill="black"/>
<path d="M294.4 2.39251C295.595 3.39979 296.162 4.28115 296.351 5.16252C297.421 7.05117 297.987 8.24731 298.05 8.688C298.239 9.12868 298.617 10.01 298.869 11.0803C299.12 12.1505 299.309 12.843 299.498 13.1578C299.939 14.9205 300.191 16.8721 300.316 18.8237L300.946 24.5526L301.072 26.819C300.946 27.2597 300.757 27.4485 300.82 27.5745V27.8892C301.009 28.0151 301.009 28.204 301.009 28.3299C300.568 28.8336 299.561 29.1483 298.113 29.2742H297.295C296.791 29.3372 295.344 29.2742 293.078 29.1483C291.252 28.3299 290.245 27.8263 290.182 27.3226V27.1967C289.93 26.3154 289.616 23.7342 289.364 19.3903C289.238 16.6833 288.923 14.6058 288.357 13.0948C287.79 11.458 287.035 10.136 285.839 9.44345C285.335 9.00277 284.643 8.75095 283.699 8.81391H283.069C282.88 9.00277 282.566 9.00277 282.44 9.06573C280.677 9.63232 279.292 10.4507 278.222 11.8987L276.46 15.0464C276.019 16.1167 275.767 17.3758 275.704 18.6978V19.7681C275.893 22.1603 276.586 24.9933 277.719 28.1411C278.285 29.589 279.041 31.3518 280.3 33.5552C281.181 35.192 283.51 38.7804 287.287 44.4464C289.238 47.3423 291.252 50.8678 293.581 54.771C293.77 55.2117 294.148 55.9671 294.714 56.9744C295.281 57.9817 295.784 58.7371 295.973 59.1778C296.162 59.4926 296.917 60.9405 298.176 63.7106C298.176 64.1512 298.176 64.5919 298.428 65.2215C298.617 65.7881 298.68 66.2917 298.806 66.7324C299.12 66.9842 299.687 67.7397 300.254 68.9358C300.442 69.6913 301.072 71.454 302.016 74.4129C302.016 74.5388 302.457 76.4904 303.338 80.0788C304.03 83.7932 304.534 86.9409 304.723 89.8368C305.037 94.8103 304.597 99.2171 303.716 103.057C303.338 104.757 302.897 106.268 302.205 107.653C301.953 108.723 301.198 109.794 299.939 110.927C299.813 111.367 298.869 112.186 297.295 113.319C296.162 113.823 295.092 114.2 293.644 114.452H292.511C292.008 114.704 291.567 114.704 291.378 114.767C291.189 114.767 290.749 114.767 290.056 114.704H288.734C282.691 114.389 276.46 113.382 274.508 111.241C272.557 109.101 271.361 104.946 270.858 98.7764C270.669 95.9435 270.543 93.4882 270.606 91.5366C270.417 90.7812 270.165 90.2146 270.165 90.0257C270.165 89.585 270.291 88.9555 270.354 87.8852C270.165 87.5705 269.976 87.1298 269.976 86.5632C269.976 85.9336 270.102 85.493 270.228 85.1782C270.039 85.0523 270.039 84.7375 270.039 84.2968V83.5413C270.039 83.4154 270.039 83.2266 269.787 83.1007C269.913 82.66 270.858 82.2822 272.62 81.7157C272.809 81.7157 272.935 81.7157 273.438 81.5268H274.445C275.075 81.4009 275.893 81.5268 277.026 81.5898C278.474 81.6527 279.481 82.0304 279.67 82.66C279.67 83.1007 279.733 83.982 279.67 85.2411L279.859 88.5777C280.048 91.2848 280.3 93.6771 280.614 95.6287C281.873 102.931 283.699 106.646 286.468 106.457C286.783 106.457 289.679 106.142 290.497 105.89C291.315 105.701 291.945 105.198 292.511 104.442C292.952 103.813 293.204 102.868 293.455 101.546C293.896 100.476 294.148 99.0912 294.022 97.4544C294.148 96.6989 294.022 95.5028 294.022 93.9919C294.085 92.4809 294.022 91.4107 294.022 90.97C294.022 90.2146 293.896 88.8925 293.644 87.1927L293.392 82.9748C292.637 76.2386 288.294 66.0399 280.362 52.8194C279.985 52.2528 279.481 51.3714 278.915 50.1753C278.348 48.9791 277.782 48.0978 277.467 47.5312L276.019 45.0759C275.453 44.0686 274.949 43.1873 274.571 42.3059L271.865 37.4584C269.095 31.4147 267.144 26.6931 266.451 23.1047C266.2 21.1531 265.948 19.6421 265.885 18.8867C265.633 14.5428 266.829 10.073 268.906 6.92526C270.669 4.28115 273.69 2.39251 277.845 1.38523C280.237 0.818637 282.817 0.314997 285.776 0.189088C288.357 0.000223063 290.497 0.189088 292.008 0.881591C292.826 1.25932 293.707 1.82591 294.4 2.58137" fill="black"/>
<path d="M325.37 13.3463C325.37 13.787 325.37 14.6684 325.559 15.7386V18.3197L325.622 20.2714V24.1746L325.685 27.3223C325.874 28.6444 325.874 29.9034 325.874 30.6589L326 37.8987L326.126 45.7051L326.252 55.652C326.252 56.7222 326.252 58.3591 326.503 60.3107V64.6545C326.44 67.2357 326.315 69.1873 326.315 70.2575C326.315 71.3278 326.315 72.0832 326.503 72.5239L326.629 79.5748C326.881 96.8874 327.007 107.149 326.881 110.171V111.241C326.755 111.682 326.755 112.123 326.755 112.311C326.755 112.941 325.937 113.256 324.174 113.256H322.538C321.09 113.256 319.265 113.193 318.635 113.004C316.684 112.248 315.677 111.682 315.677 111.052L315.425 56.7852C315.425 53.8893 315.362 51.6858 315.488 50.3008V43.9424C315.425 43.9424 315.362 39.8503 315.362 39.8503V37.7099L315.236 32.1069C315.236 31.3514 315.236 30.47 315.362 29.2109V26.5039L314.984 14.9202C315.11 10.3874 315.047 7.55446 314.984 6.29537V3.4624C314.984 2.70694 315.11 2.07739 315.236 1.63671C315.047 1.5108 314.921 1.32193 314.921 1.19602C314.921 1.11208 314.858 1.07011 314.732 1.07011C314.732 0.944202 315.236 0.881247 316.18 0.881247H317.313C317.817 0.692383 318.95 0.692383 320.083 0.692383C320.901 0.692383 321.719 0.692383 322.349 0.818293C323.986 0.818293 324.804 1.07011 324.804 1.5108C324.993 3.33649 325.182 7.23969 325.307 13.0945" fill="black"/>
<path d="M378.748 29.4631L378.622 33.2404V33.3663C378.622 33.4922 378.622 33.807 378.433 33.9958C378.433 34.1218 378.244 34.3106 378.118 34.3106C377.93 34.4365 377.804 34.4365 377.3 34.4365C376.985 34.5624 376.671 34.5624 376.293 34.6883C375.349 34.4995 373.901 33.9958 371.95 33.4922C370.187 32.9886 368.551 32.6108 368.551 32.2961V29.589C368.551 27.3226 368.551 28.3929 368.299 21.5937C368.173 19.9569 367.921 18.6978 367.606 17.8164C367.481 16.9351 367.04 15.8648 366.599 14.7946C366.159 13.7244 365.34 12.9689 364.27 12.4653C363.326 11.9616 360.871 11.7098 359.423 11.521H358.605C354.514 11.3321 352.31 14.4169 351.114 16.0537C350.422 17.3758 349.856 19.3274 349.604 22.1603V22.9158L349.541 24.7415V26.6931C349.478 26.6931 349.415 27.5744 349.415 27.5744C349.1 31.3517 348.723 37.2065 348.03 51.8121C348.03 54.708 347.967 58.1705 347.778 62.5144C347.652 66.8583 347.527 69.7542 347.652 71.2651C347.338 84.8004 347.904 91.9143 349.037 95.5657C349.163 96.0064 349.289 96.6359 349.793 97.3914C350.359 98.9023 351.492 100.476 352.877 102.176C354.136 103.435 355.08 104.191 355.898 104.379C356.402 104.568 356.843 104.568 357.661 104.568H358.164H358.668C361.123 104.631 362.76 104.253 363.578 103.246C363.578 103.12 363.767 102.806 364.459 102.239L365.466 101.043C365.466 100.917 365.844 100.476 366.159 99.8466C366.536 99.2801 366.851 98.6505 367.04 97.895C367.229 97.2655 367.418 96.573 367.606 95.6287C368.362 93.2364 368.739 91.2848 368.802 89.9627C368.802 89.522 368.802 88.4518 368.802 86.815L368.614 83.7932C368.614 83.4784 368.614 83.0377 368.488 82.2822C368.488 81.6527 368.488 81.212 368.362 81.0861C367.858 81.212 366.914 81.212 365.403 81.275L361.312 81.5897C359.99 81.7156 358.731 81.7786 357.535 81.9045C357.031 81.9045 356.717 81.9045 356.591 81.7156C356.402 81.8416 356.276 81.8415 356.087 81.8415C356.087 81.7156 355.898 81.6527 355.773 81.5268C355.647 81.212 355.521 80.0159 355.395 77.7495V75.9238C355.332 75.4831 355.395 74.8536 355.395 74.287V74.1611C355.395 73.4056 355.584 72.9649 355.773 72.5242C355.961 72.2094 356.087 72.0835 356.276 72.0835C360.808 72.2724 364.27 72.2094 366.536 72.0206H367.669L372.894 72.2724C374.971 72.5242 376.293 72.5242 376.797 72.5872H377.741C378.056 72.776 378.181 73.7204 378.307 75.672C378.622 76.4274 378.748 77.6236 378.685 79.0086V80.3306L378.559 82.4081L378.433 85.43V87.2557C377.867 101.232 374.153 109.856 367.355 113.067C366.222 113.634 365.026 114.011 363.578 114.263C363.074 114.389 361.123 114.452 359.99 114.452C358.857 114.452 358.227 114.452 357.724 114.515H357.094C356.906 114.641 356.78 114.641 356.591 114.641C356.087 114.641 355.269 114.452 354.514 114.263C353.695 114.074 353.066 114.074 352.562 114.074C350.485 113.382 349.037 112.878 348.408 112.564C344.127 110.297 341.169 105.953 339.595 99.5948C339.155 98.0839 338.903 96.573 338.777 94.8732C338.525 93.6771 338.399 92.418 338.399 91.2218L338.273 90.1516C338.273 89.3961 338.336 88.5148 338.273 87.2557C338.273 86.0595 338.336 85.1782 338.273 84.3597V78.6309L338.525 72.776L338.651 69.4394C338.714 67.4878 338.84 64.5919 338.777 60.6887C338.777 59.9333 338.84 59.0519 338.777 57.7928V55.0857C338.84 55.0857 338.903 54.3303 338.903 54.3303V52.3787C338.966 52.3787 339.029 50.553 339.029 50.553V49.7975C339.029 49.3568 339.092 48.4755 339.029 47.4052C339.029 46.335 339.092 45.5795 338.966 45.0129L339.155 40.4802L339.029 38.9693L339.155 35.192L339.595 28.267L339.784 22.8528C339.973 17.7535 340.791 13.9762 341.987 11.458L342.869 9.25458C344.064 6.86229 346.142 4.84773 348.911 3.27386C351.744 1.69999 354.702 0.755667 357.787 0.755667C358.92 0.629757 360.368 0.755667 362.319 0.755667C365.529 1.32226 367.984 2.01476 369.369 2.83318C370.943 3.7775 372.516 5.22546 374.279 7.24002C376.922 10.5137 378.37 15.1094 378.622 20.9642C378.811 24.4267 378.874 27.3226 378.937 29.4001" fill="black"/>
<path d="M413.431 8.49872C413.431 9.56895 413.431 10.7651 413.809 12.339C413.872 13.0944 413.998 14.7942 414.187 17.2494C414.312 17.6901 414.375 18.6345 414.375 20.0195C414.564 21.4045 414.69 22.6636 414.753 23.7338C415.068 27.8888 415.383 31.9809 416.012 36.3248C416.453 39.5355 416.767 41.2982 416.704 41.55C416.83 41.9907 416.893 42.8091 416.956 43.5646C417.145 44.5089 417.271 45.1385 417.208 45.3903C417.523 46.7753 417.775 47.4678 417.775 47.5937C417.9 47.7826 418.341 48.601 418.656 49.7971L419.033 52.0005L419.789 49.986C420.229 49.2935 420.418 48.8528 420.481 48.4121V48.0973C424.51 39.0318 428.098 32.2957 432 23.2302C432.189 22.9783 432.693 21.4674 433.637 18.8863C435.4 14.9831 436.91 12.0242 438.169 9.88372C438.358 9.44304 438.799 8.75054 439.554 7.74326C439.743 7.61735 439.806 7.17666 439.995 6.73598C440.183 6.2953 440.561 5.91757 440.813 5.60279C441.002 5.47688 441.316 5.35097 441.631 5.41393C441.82 5.41393 442.449 5.66575 443.205 5.7287C443.52 5.7287 444.023 5.79166 444.653 5.7287L445.597 5.85461C446.73 5.98052 447.359 6.23234 447.674 6.42121C447.8 6.61007 448.115 6.61007 448.429 6.79894H449.059C449.185 7.05076 449.5 7.11371 449.688 7.23962C449.814 7.42848 450.003 7.42848 450.003 7.55439C450.087 7.6803 450.129 7.78523 450.129 7.86917C450.255 8.05803 450.192 8.62463 450.129 9.38008L450.003 10.2615C449.94 10.891 449.877 11.3317 449.688 11.7094C449.751 12.339 449.814 13.4092 449.625 15.046C449.562 15.6126 449.562 16.9976 449.499 18.9492C449.248 21.0267 449.059 22.6636 449.059 23.7338L448.304 30.3441C448.052 33.6807 447.8 36.073 447.548 37.8357L446.919 43.0609C446.919 44.2571 446.919 45.3273 446.919 46.2716C446.919 46.3976 446.856 46.8382 446.604 47.4678L446.478 48.6639L446.289 50.4896L445.849 54.078L444.149 68.6206C444.149 69.0613 443.96 69.9427 443.708 70.824L443.394 73.2163C443.142 75.4827 442.953 77.1195 442.953 78.1898C442.953 78.5045 442.827 79.0711 442.575 80.1414L442.324 82.4077L441.82 86.6257C441.82 87.0664 441.694 87.8219 441.379 88.7032L441.128 90.6548C440.939 92.2917 440.687 94.558 440.183 97.5169C439.68 100.476 439.428 102.742 439.176 104.379C438.925 105.386 438.421 107.904 437.791 111.808C437.162 115.522 436.721 117.914 436.281 118.796C436.218 119.362 435.211 119.551 433.259 119.362C432.441 119.362 431.623 119.488 431.119 119.362L429.797 119.236L428.664 119.11C427.531 118.859 426.902 118.607 426.776 118.292V117.851L426.965 116.97C426.965 116.529 427.028 116.215 426.965 116.026L427.405 112.122C427.657 109.856 427.909 108.093 428.224 106.771L428.475 104.379C428.79 103.372 428.853 102.427 428.916 101.861L429.042 100.979C429.168 100.098 429.483 98.5872 429.923 96.3837L430.238 93.5508C430.427 92.2287 430.553 91.1585 430.741 90.403C430.993 89.3957 431.182 87.8848 431.434 85.8073C431.812 83.7298 432 82.2189 432.126 81.2116L432.378 78.9452C432.63 77.938 432.756 76.9936 432.819 76.427L432.945 75.5457L433.133 73.72C433.385 72.8386 433.511 72.0831 433.574 71.6425C433.574 70.4463 433.763 68.7465 433.952 66.8579C434.266 65.6617 434.455 64.0249 434.707 61.7585L435.274 56.974L436.029 50.8044C436.092 50.0489 436.218 49.1676 436.218 47.7826L436.533 44.9496C436.595 44.1941 436.784 42.6832 436.91 40.4168C437.036 38.1505 437.162 36.6395 437.288 36.073L436.533 36.8914L434.707 41.0464C434.455 41.8018 434.266 42.0537 434.266 42.1796C433.889 42.6203 433.071 44.1312 431.937 46.7753C430.804 49.2305 429.923 51.1192 429.483 52.3783C427.091 57.4147 425.58 60.6883 424.573 62.2622C423.566 63.962 422.37 66.8579 421.111 70.824C419.852 74.7902 418.719 77.3714 418.089 78.3786C417.9 78.8193 417.208 79.0082 416.075 78.8823C415.446 78.8193 414.942 78.5675 414.69 78.2527C414.124 77.4343 413.746 76.6159 413.62 75.9863C413.494 75.6716 413.431 75.042 413.179 74.2866C412.802 73.4681 412.676 73.0275 412.55 72.5238C412.424 72.0831 412.172 71.7054 412.235 71.2647C411.983 70.7611 412.046 70.3204 411.795 69.5649L411.669 68.054C411.669 67.9281 411.417 67.2356 411.228 66.0395C410.725 64.7804 410.662 63.8361 410.599 63.0806L409.592 57.6665L408.458 50.8674L406.696 39.2837L405.311 31.855L404.619 37.8357L404.367 40.228L404.178 41.55C403.863 42.8721 403.675 44.383 403.486 46.0198C403.297 47.8455 403.045 49.7342 402.982 51.8746L402.29 57.8553C402.164 58.9256 401.975 60.3735 401.912 62.514L401.346 67.4245L400.842 71.8943C400.401 73.9718 400.275 75.4827 400.15 76.3641C399.646 80.708 398.702 87.1294 397.695 95.6283C396.31 104.253 395.617 110.423 395.177 114.011C395.114 114.767 394.233 115.081 392.47 114.892H389.826C389.008 114.767 388.504 114.704 388.253 114.515C386.553 113.885 385.798 113.319 385.672 112.815V112.059C385.672 111.745 385.672 111.43 385.672 110.989L385.798 109.793L385.924 108.912L386.175 106.834C386.301 105.764 386.616 103.246 386.868 99.4685L387.938 90.2142C388.001 89.5846 388.127 88.7032 388.127 87.5071L388.441 84.8L388.63 83.2891C388.819 81.6523 389.008 80.1414 388.945 79.0711C389.26 78.0639 389.637 76.1123 389.952 73.4052C389.952 72.0202 390.204 70.0686 390.456 67.5504C390.833 65.7877 391.148 63.0806 391.589 59.4922L392.029 55.589C392.911 49.6083 393.54 45.5791 393.792 43.6275C394.233 41.1093 394.673 37.3321 395.429 32.4216C396.184 27.5111 396.813 23.3561 397.443 19.5788C398.009 15.9903 398.765 12.5908 399.457 9.506C399.457 9.38009 399.52 8.87645 399.772 8.30985C400.024 7.74326 400.212 7.30257 400.212 7.17666C400.401 7.05076 400.401 6.73598 400.464 6.42121V5.79166C400.527 5.79166 400.59 5.35097 400.59 5.35097L400.716 4.15483L400.842 3.0846C400.842 2.64391 402.038 2.64391 404.304 2.89573C405.437 2.89573 406.57 2.89573 407.703 3.02164C408.836 3.14755 409.466 3.21051 409.969 3.46233C412.046 4.15483 413.116 4.72142 413.054 5.16211C413.054 6.54712 413.242 7.61735 413.305 8.37281" fill="black"/>
<path d="M482.547 116.53C482.547 115.774 482.862 113.508 483.113 110.045C483.554 106.583 483.68 104.442 483.869 101.861C484.121 99.2799 484.058 97.8949 483.68 97.5172H483.365C483.176 97.3913 482.736 97.3283 481.917 97.2654L480.155 96.8876L479.337 96.6988L477.448 96.2581C476.504 95.8804 475.749 95.7544 475.119 95.6285L473.86 95.3767L472.412 95.0619C471.657 94.7472 471.154 94.6213 470.713 94.5583C470.398 94.4953 469.895 94.3694 469.265 94.3694L468.006 94.1176C465.929 93.6769 464.607 93.6769 464.041 94.0547C463.726 94.7472 462.53 97.8949 460.642 103.624C458.438 109.29 458.187 109.73 457.809 110.738C457.557 111.745 457.117 113.067 456.613 114.641C455.921 116.215 455.291 117.726 454.599 119.425L453.088 122.636C452.396 122.636 451.577 122.636 450.822 122.447L450.004 122.258L449.5 122.133L447.612 121.692C444.464 120.999 442.891 120.37 442.891 119.614V119.3C443.079 118.859 443.646 117.726 444.338 115.9C445.409 114.137 445.849 112.815 445.975 112.249C447.045 109.73 447.612 108.597 449.563 102.679C451.64 96.8247 452.773 93.1733 453.214 92.0401C453.592 91.0328 454.032 89.7737 454.725 88.1999C455.417 86.5001 455.858 85.3669 456.172 84.6744L457.494 80.7712L459.446 75.6718C459.76 75.1052 460.453 73.4055 461.208 70.6354C461.271 70.1948 461.586 69.5023 462.026 68.3691C462.467 67.2359 462.782 66.3545 463.033 65.9768L464.67 61.3811C468.006 52.0638 469.706 47.2162 469.769 46.9015L472.098 41.4244C472.538 40.1653 473.294 38.2766 474.49 35.6325C474.553 35.1919 475.308 33.4921 476.63 30.2184C477.574 28.1409 478.392 25.8116 479.211 23.6711L481.477 17.8163C482.169 16.2424 482.547 15.2981 482.736 14.9833C482.925 14.8574 483.113 14.9204 483.428 14.9833C483.617 14.9833 483.932 15.1092 484.372 15.3611L485.631 15.6129L486.135 15.7388C486.89 15.424 488.653 15.6758 491.485 16.3054C496.584 17.3756 500.109 18.6347 502.312 20.0197C502.123 28.4557 501.808 33.8068 501.557 35.7584L500.801 40.6689L498.535 61.7588C497.339 71.0761 496.71 78.0012 496.206 82.5339L495.388 93.2992C495.388 94.3694 495.136 95.8804 495.073 97.706L494.758 101.483C494.444 105.261 494.318 107.401 494.192 107.968L494.066 108.534C493.688 110.171 493.625 111.367 493.562 113.948C493.311 116.53 493.185 118.04 493.185 118.67C492.996 119.425 492.807 120.307 492.681 121.629V124.21C492.304 126.476 492.241 127.547 492.178 127.673L491.989 128.428C491.8 129.183 491.8 130.065 491.8 130.82C491.611 130.946 490.793 130.883 489.03 130.694C487.268 130.443 485.317 130.191 484.058 129.939C482.295 129.561 481.414 129.183 481.477 128.743V128.617C481.477 126.476 482.169 120.118 482.484 116.341M479.714 84.1707L481.792 84.6114C482.736 84.8003 483.365 84.9262 483.869 84.9262L486.135 85.241L486.45 82.2192C486.638 79.1973 486.953 76.805 487.205 74.8534C487.331 74.4127 487.457 73.8461 487.52 72.7759C487.52 71.7057 487.771 70.8243 487.897 70.2577L489.03 60.4997C489.471 56.0929 489.975 52.3785 490.226 49.4826C490.541 46.5867 490.793 43.1242 490.982 39.0321C491.359 34.94 491.485 31.2887 491.422 27.7002C491.422 27.5743 491.359 27.3855 490.982 27.3225C490.793 27.3225 490.667 27.2595 490.163 27.3225L489.345 27.1336C489.156 27.1336 489.03 27.0707 488.904 26.8818L486.638 32.1071C484.876 36.5139 483.743 39.221 483.176 40.4801L480.973 46.146C480.533 47.4051 479.714 49.6085 478.959 52.5044C478.141 55.4004 477.637 57.1631 477.322 57.8556L474.616 65.725C472.412 70.6355 470.587 75.7977 469.328 80.8971L469.202 81.4637C471.028 82.3451 472.538 82.7857 473.671 83.0376C474.049 82.9746 474.49 83.0376 475.308 83.2264L477.196 83.6671L479.714 84.2337V84.1707Z" fill="black"/>
<path d="M545.179 31.7291L559.468 36.136C560.223 36.3878 560.034 38.0246 559.027 41.3612C558.272 43.8164 557.579 45.0126 557.076 44.8867C552.858 43.5646 548.515 42.2426 544.172 41.0464H543.983C543.417 42.8721 542.409 46.0199 540.899 50.4267L538.381 58.6108C530.009 85.8074 527.806 88.9551 516.916 124.336L516.601 125.343L516.035 127.232C515.783 127.924 515.657 128.365 515.405 128.617C515.279 129.057 515.091 129.624 514.65 130.568C514.335 131.576 514.146 132.268 513.769 132.835C513.643 133.905 513.58 134.534 513.517 134.786C513.517 134.912 513.391 135.227 513.139 135.479L512.95 136.045C512.888 136.36 512.699 136.738 512.384 137.304L512.006 138.438C511.754 139.319 509.74 139.13 505.838 137.934C503.194 137.116 501.872 136.423 502.061 135.856C502.375 134.849 502.753 133.527 503.383 132.016C503.509 131.576 503.949 130.757 504.453 129.687C504.516 129.372 504.642 128.994 504.767 128.176L505.145 126.854L505.334 126.287L505.775 124.839L506.593 122.069C506.908 121.692 507.159 120.81 507.474 119.803C507.915 118.859 508.167 118.103 508.229 117.851L512.384 104.316C514.398 97.8317 515.909 92.7953 517.294 88.9551C517.986 86.6258 518.553 84.926 519.056 83.7928L519.371 82.7855C519.623 81.9042 520.252 80.5191 521.071 78.4416C521.259 77.875 521.511 76.9937 521.763 75.6716L522.581 72.9646L524.407 67.0468L526.295 61.0031L528.435 54.5817L529.128 52.2524C529.631 50.6785 529.568 51.434 530.009 50.4897C530.135 50.049 530.45 49.0417 530.701 47.7197C531.079 46.3976 531.394 45.3903 531.457 44.6349L532.904 39.9132L533.471 38.0246V37.8987L517.608 33.303C516.853 32.9253 516.979 30.9107 518.049 27.4482C518.742 25.1189 519.434 24.1116 520.189 24.3634H520.378C520.63 24.6782 521.133 24.8041 521.574 24.93C521.763 24.93 522.204 25.1189 522.833 25.1818L524.218 25.6225L524.973 25.8743C525.099 26.0632 525.54 26.1891 526.169 26.378C526.61 26.5039 527.113 26.6927 527.932 26.7557L529.631 27.2593L530.387 27.5111L544.927 31.6662L545.179 31.7291Z" fill="black"/>
<path d="M578.226 54.1412L577.345 56.4076C577.093 57.4778 576.778 58.2962 576.526 58.8628L575.771 60.6885L574.323 64.3399L573.127 67.2988C572.75 68.6208 572.309 69.754 572.057 70.4465L569.35 77.1827L566.392 84.4225L562.678 93.6139L560.916 97.9578C560.349 99.8464 559.783 101.231 559.405 102.05C558.272 104.379 557.391 106.142 557.013 107.086C556.635 108.094 556.321 108.786 556.321 109.227L553.677 115.774C546.627 133.275 542.598 143.285 541.276 146.055C541.15 146.307 541.025 146.748 540.71 147L540.332 148.007C540.143 148.448 539.136 148.322 537.248 147.881C537.122 147.692 536.681 147.503 535.926 147.189C533.03 146.055 531.205 144.985 531.457 144.418L552.607 90.718L553.11 89.4589C553.866 87.6332 554.495 86.1223 555.188 84.7373L557.579 78.8825L559.09 75.1052L559.846 73.1536L561.923 67.9913L562.993 65.3472C563.622 64.2769 563.937 63.4585 564.189 62.8919L567.84 53.8264C569.225 50.8046 570.106 48.7271 570.546 47.5939L571.616 44.9498C571.616 44.8239 571.805 44.5091 571.742 44.1943C571.742 43.8796 571.931 43.7536 572.12 43.6907C572.057 43.5018 571.994 43.1241 572.246 42.9352L572.372 42.6205C572.372 42.4945 572.875 42.6205 573.757 42.9982L574.827 43.4389C575.33 43.4389 576.212 43.8796 576.967 44.1314L577.848 44.5091L578.289 44.698C580.114 45.7682 580.933 46.3978 580.807 46.7125C580.303 48.4753 579.422 50.9935 578.1 54.2671" fill="black"/>
<path d="M568.405 111.997C569.35 109.919 570.042 108.219 570.546 107.338C571.049 106.079 571.867 104.442 573.063 102.176C574.008 100.476 575.455 97.3281 577.784 92.5435C579.988 87.7589 581.75 84.0446 583.072 81.5264L583.89 79.9525C584.205 79.3859 584.583 78.6305 585.338 77.6232L586.534 75.3568L587.163 74.1607C590.185 68.4318 594.15 63.0177 598.934 58.2331C602.711 54.9594 606.488 53.7003 610.076 54.2669C610.642 54.2669 611.524 54.3299 612.594 54.7706C613.538 55.0853 614.167 55.2742 614.356 55.2112L615.615 55.9038C616.937 56.5963 617.692 57.1628 618.196 57.9813C621.847 60.7513 623.987 64.7804 624.428 69.8168C624.868 74.8532 623.924 79.7637 621.469 84.4223L619.77 87.9478C619.707 88.0737 619.644 88.1996 619.707 88.4514L619.392 88.9551C618.7 90.2771 617.063 90.2771 614.293 88.8292L613.601 88.4514L612.72 88.0107C611.146 87.1923 610.328 86.5628 610.139 85.9332C610.202 85.8073 610.265 85.6814 610.265 85.3037C610.202 85.1148 610.328 84.8 610.391 84.6741L612.72 80.2673C614.167 77.1195 614.923 74.0977 614.734 70.95C614.545 67.8022 613.475 65.6618 611.587 64.7174C610.328 64.0249 609.132 63.7731 608.062 64.0249C606.866 64.2138 605.544 64.9063 604.474 65.9136C603.341 67.0468 602.459 67.9281 601.83 68.8095C601.2 69.6909 600.193 70.8241 599.123 72.5238C598.746 72.8386 598.62 73.0904 598.557 73.2793L597.99 74.3495L597.487 75.2939L596.92 76.3641L596.291 77.5602L594.528 80.8968L592.577 84.6112L590.374 88.7662L589.304 90.7808C588.926 91.4733 588.422 92.3546 587.919 93.8026C587.352 95.1876 586.849 96.1319 586.597 96.6985L583.638 102.616C583.009 104.127 581.561 106.834 579.673 110.737C577.596 114.578 576.211 117.6 575.267 119.677C574.574 120.999 573.693 122.951 572.686 125.28L571.427 127.672C571.049 128.365 570.797 129.183 570.294 130.505C569.79 131.764 569.413 132.583 569.098 133.086L568.531 134.157C568.405 134.786 567.965 135.542 567.524 136.675C567.021 137.934 566.769 138.815 566.706 139.319C566.643 139.823 566.328 140.704 566.013 142.026C565.636 143.348 565.51 144.292 565.447 144.796C565.384 145.3 565.51 146.055 565.573 146.937C565.636 147.818 566.139 148.636 566.832 149.14C567.398 149.769 568.342 150.462 569.664 151.154C570.797 151.784 572.119 151.784 573.315 151.154C574.511 150.588 575.644 149.832 576.463 148.699C577.47 147.881 578.162 146.874 578.729 145.803C579.106 145.489 579.421 144.796 579.862 144.041L580.428 142.97L580.932 142.026C581.309 141.711 581.624 141.019 582.128 140.074L583.072 138.375C584.394 135.856 585.401 134.346 586.156 133.527C586.534 133.212 587.226 133.212 588.611 133.779C588.737 133.842 589.052 134.031 589.43 134.031C589.933 134.157 590.185 134.283 590.5 134.408C590.94 134.66 591.507 134.975 592.136 135.479C592.766 135.982 593.332 136.297 593.71 136.675L594.339 137.178L590.437 144.481C587.793 149.392 585.401 152.917 583.072 155.247C582.694 155.561 581.561 156.695 579.484 158.457C575.707 161.731 572.56 162.801 569.979 161.794C569.035 161.794 567.839 161.353 566.517 160.661C565.699 160.094 564.44 159.402 562.551 158.394C559.152 155.75 557.075 152.414 556.383 148.447C555.69 144.544 555.879 140.704 556.949 136.612C558.208 132.835 560.034 128.365 562.677 123.454C563.936 121.062 564.943 119.173 565.447 117.914L566.139 116.592C566.643 115.648 567.272 114.137 568.154 112.06" fill="black"/>
<path d="M140.056 130.065C139.742 128.931 139.553 127.861 139.427 127.106C139.427 126.98 139.175 126.098 138.734 124.525C138.294 122.951 137.853 121.503 137.476 120.558C137.224 119.866 136.783 118.418 136.154 116.277L135.524 114.641C135.524 114.515 135.398 114.389 135.461 114.011L135.147 113.193C134.958 112.626 134.58 112.122 134.265 111.808C133.321 108.156 131.622 103.435 129.23 97.5169L128.097 94.7469L126.964 91.851L124.131 84.6741L122.62 80.4562L122.054 79.0712L121.487 77.6861L120.984 76.427C120.858 76.1752 120.732 75.7345 120.669 75.2309L120.228 74.1607C120.039 73.72 119.914 73.3423 119.662 73.0904C119.536 72.8386 119.41 72.3979 119.284 71.7684L118.718 70.3834C118.34 69.4391 117.899 68.8095 117.522 68.3059C115.067 62.0733 112.171 56.6592 108.709 51.8117C105.688 47.6567 102.666 44.7607 99.7077 42.998L103.296 41.676C103.422 41.55 103.61 41.4241 103.736 41.3612C104.177 41.1094 104.618 40.8575 105.058 40.6687C106.632 39.4096 107.324 37.395 106.632 35.6323C106.002 33.9325 104.366 32.9252 102.477 32.7993C101.093 33.177 99.7707 33.7436 98.4488 34.3732C96.8122 35.1286 95.1756 35.5693 93.6019 36.1359C93.539 36.1359 93.4131 36.1359 93.3501 36.1989L85.293 39.7244C85.1671 39.7244 85.0412 39.7873 84.9783 39.8503C84.9783 39.8503 84.9783 39.8503 84.9153 39.8503C84.3488 40.0391 83.9711 40.228 83.7193 40.4798C81.831 41.7389 80.2573 43.4387 78.9354 45.768C77.6136 48.0344 76.8582 50.5526 76.5435 53.2597C76.5435 55.3372 76.4176 56.8481 76.4805 57.7924C76.4805 58.7367 76.7323 60.1217 77.047 61.8845C77.3618 63.5213 77.8653 65.7247 78.6207 68.4318L79.6908 71.2018C80.0055 72.5238 80.4461 73.4682 80.572 74.2236C80.7609 74.6643 81.1385 75.6086 81.7051 77.4343L82.964 81.9041C83.2158 82.5966 83.7823 83.9816 84.6006 86.3739C85.356 88.7662 85.9854 90.6549 86.3631 92.0399L89.4475 100.728C89.6363 101.168 89.8881 101.861 90.1399 102.868C90.3287 103.749 90.5176 104.316 90.7064 104.694L92.2801 108.534L94.672 113.193L95.3644 115.333L96.3086 117.662L97.1269 119.74L97.9452 121.818C99.1412 124.839 100.022 127.043 100.715 128.365C100.967 129.057 101.596 130.065 102.414 131.701C103.17 133.149 104.114 134.723 105.058 136.234C105.814 137.682 106.38 138.626 106.443 138.878C110.157 143.915 113.934 146.937 118.025 148.007C118.529 148.007 119.221 148.007 120.102 148.007C120.984 148.007 121.676 148.007 121.865 148.133C123.061 148.133 124.446 148.133 125.83 147.692L127.341 147.125L130.3 145.929L131.055 145.614C131.936 145.237 133.069 144.67 134.265 143.663C135.021 143.033 136.154 141.963 137.601 140.263C138.357 139.508 138.986 138.123 139.616 136.234C139.993 134.975 140.245 133.464 140.245 131.827L140.371 130.82C140.371 130.316 140.245 130.065 140.182 129.939L140.056 130.065ZM127.845 135.416C127.089 136.549 126.271 137.178 125.39 137.493C124.068 138.06 122.809 138.375 121.802 138.438C120.48 138.501 119.158 138.249 118.34 137.556C117.396 136.99 116.451 136.234 115.507 135.164C114.5 133.968 113.556 132.898 112.801 131.764C111.416 129.624 108.583 123.391 104.429 113.004L101.155 104.883L99.6448 100.665L98.8265 98.5872L96.5604 91.9769C96.1827 90.5289 95.5533 88.5144 94.735 86.1221C93.9167 83.6039 93.1613 81.7782 92.7207 80.708C91.9653 78.4416 91.3988 76.6159 91.0211 75.6086C90.2028 73.0904 89.6993 71.5166 89.4475 70.8241C89.5734 70.6352 89.4475 70.3204 89.3845 69.7538C89.2586 68.9984 89.0698 68.5577 89.0068 68.3059L88.7551 67.6134C88.4403 67.2356 88.3144 66.9838 88.2515 66.8579C87.9997 65.8506 87.8109 64.4656 87.4961 63.1436C87.5591 62.9547 87.1185 61.3808 86.6149 58.6738C86.489 56.974 86.8037 55.2742 87.2444 53.7633C87.2444 52.9449 87.9368 52.0635 89.3845 50.8674C91.4618 50.4896 92.9095 50.6155 93.539 50.9303C94.4202 51.0562 94.9238 51.371 95.2385 51.6858C95.6792 51.8746 96.1827 52.2524 96.8751 52.819L98.5118 54.3928C102.54 58.359 105.939 63.899 108.709 70.95L110.22 74.6643C111.73 78.3786 114.185 84.6112 117.585 93.4878C120.921 102.239 123.627 109.164 125.642 114.137L126.019 115.081C126.208 115.648 126.712 116.907 127.404 118.985C128.222 121.062 128.537 122.195 128.663 122.951C129.104 124.525 129.418 126.161 129.544 128.176C129.859 130.253 129.293 132.772 127.845 135.227V135.416Z" fill="black"/>
<path d="M651.307 76.2382C651.307 75.9864 651.307 75.5457 651.307 74.9161C651.307 73.8459 651.181 73.0275 650.929 72.5239C650.74 71.9573 650.363 71.5166 649.796 71.2648L648.474 70.6352C649.104 70.3834 649.544 70.1316 649.733 69.8168C650.174 69.3132 650.552 68.6207 650.74 67.6763C650.803 67.3616 650.866 67.1097 650.929 66.9838C650.929 66.9209 650.929 66.8579 650.929 66.6691C650.929 66.4172 650.992 66.2913 650.992 66.1654C650.992 66.0395 650.992 65.8506 650.992 65.347V64.9063C650.992 64.7175 650.992 64.5915 650.992 64.4656C650.992 63.4584 650.803 62.7029 650.552 62.1363C650.3 61.6327 649.796 61.192 649.167 60.9402C648.852 60.8143 648.6 60.7513 648.348 60.6883H648.034C647.908 60.6254 647.782 60.6254 647.656 60.5624C647.53 60.5624 647.404 60.5624 647.341 60.5624C647.278 60.5624 647.152 60.5624 647.089 60.5624C646.964 60.5624 646.838 60.5624 646.649 60.4995C646.46 60.4995 646.334 60.4995 646.208 60.4365C646.019 60.4365 645.705 60.4365 645.264 60.4365H644.635C644.446 60.4365 644.383 60.8143 644.383 61.5068C644.383 61.8215 644.383 62.0734 644.383 62.3252V62.6399C644.383 62.7659 644.383 62.8288 644.383 62.8918C644.383 62.9547 644.383 63.1436 644.446 63.3954C644.446 63.5843 644.446 63.899 644.446 64.2768V64.9063V66.4172C644.446 66.732 644.446 66.9838 644.446 67.1727C644.446 67.2986 644.446 67.5504 644.446 67.8022V67.9282V68.18C644.446 68.3059 644.446 68.3688 644.446 68.4318C644.446 68.4318 644.446 68.4947 644.446 68.5577V68.6836V68.8095C644.446 68.8095 644.446 68.9354 644.446 68.9984C644.446 69.1873 644.446 69.502 644.446 69.8798V70.6982V71.2648V71.5166C644.446 71.8943 644.446 72.1461 644.446 72.335C644.446 74.4755 644.446 75.5457 644.446 75.6716C644.446 75.9864 644.446 76.1752 644.446 76.3012C644.446 76.3641 644.823 76.49 645.579 76.553C645.831 76.553 646.019 76.553 646.145 76.553C646.523 76.553 646.712 76.553 646.712 76.4271C646.712 76.3641 646.712 76.2382 646.712 76.2382C646.712 76.1752 646.712 76.1123 646.712 76.1123V75.7975V75.6086C646.712 75.6086 646.712 75.6087 646.712 75.4827C646.712 75.4827 646.712 75.3568 646.712 75.2939C646.712 75.168 646.712 75.0421 646.712 74.9791C646.712 74.7273 646.712 74.2236 646.712 73.5311C646.712 73.4052 646.712 73.0275 646.649 72.398V71.8943C646.649 71.6425 646.649 71.4536 646.649 71.3907C646.649 71.2648 646.649 71.2018 646.775 71.2018C647.027 71.2018 647.467 71.4536 648.097 71.7684C648.537 72.0202 648.789 72.335 648.915 72.6498C649.041 72.9645 649.167 73.5941 649.293 74.5384C649.293 74.8532 649.293 75.168 649.293 75.4827V75.9864C649.293 76.49 649.293 76.7418 649.293 76.8048C649.293 76.8677 649.481 76.9307 649.796 76.9937H650.111L650.74 77.1196H650.803C650.992 77.1196 651.181 77.1196 651.307 77.0566C651.307 76.9937 651.244 76.8677 651.244 76.6789C651.244 76.553 651.244 76.4271 651.244 76.1752L651.307 76.2382ZM647.971 68.9354C647.593 69.3132 647.278 69.502 646.901 69.565H646.775C646.775 69.4391 646.649 69.3761 646.649 69.2502V69.1243C646.649 68.9354 646.649 68.8095 646.649 68.7466C646.649 68.3688 646.586 67.4245 646.523 65.9136C646.523 65.284 646.46 64.5915 646.397 63.8361C646.334 63.0806 646.271 62.577 646.271 62.4511C646.271 62.3252 646.271 62.1363 646.271 61.9474C646.271 61.8215 646.397 61.7586 646.523 61.7586H646.649C646.712 61.7586 646.775 61.7586 646.901 61.7586C647.027 61.7586 647.152 61.7586 647.341 61.8845C647.53 61.8845 647.656 61.9474 647.782 62.0104C648.097 62.1363 648.348 62.3252 648.474 62.514C648.789 62.8918 648.978 63.4584 648.978 64.1509C648.978 64.4027 648.978 64.7804 649.104 65.284C649.104 65.347 649.104 65.4729 649.104 65.5359C649.104 65.7877 649.104 66.0395 649.104 66.2913V66.6061C649.104 66.9838 649.041 67.2986 648.915 67.6134C648.663 68.18 648.411 68.6207 648.034 68.9354H647.971Z" fill="black"/>
<path d="M647.655 55.6523C640.29 55.6523 634.311 61.6331 634.311 68.9988C634.311 76.3645 640.29 82.3452 647.655 82.3452C655.02 82.3452 661 76.3645 661 68.9988C661 61.6331 655.02 55.6523 647.655 55.6523ZM637.773 63.9624C637.71 64.2142 637.647 64.466 637.458 64.5919C637.584 64.3401 637.647 64.1513 637.773 63.9624ZM647.655 80.1418C645.83 80.1418 644.13 79.7011 642.619 78.9456C642.368 78.6938 642.116 78.3791 641.864 78.0643C640.983 77.057 639.976 76.3015 638.78 75.735C637.395 73.8463 636.577 71.5799 636.577 69.0617C636.577 66.5435 636.828 66.5435 637.206 65.3474L638.906 62.4515C638.717 62.6403 638.528 62.8292 638.339 63.0181C638.654 62.5774 638.969 62.1367 639.283 61.759L638.843 62.4515C638.969 62.3256 639.032 62.2626 639.157 62.1367C639.535 61.759 639.85 61.3812 640.039 60.8776C642.053 59.0519 644.697 57.9187 647.592 57.9187C650.488 57.9187 652.565 58.8001 654.453 60.311C654.642 60.6887 654.831 61.0665 655.146 61.3812C655.398 61.6331 655.712 61.8219 656.09 61.8849C657.727 63.8365 658.734 66.2917 658.734 69.0617C658.734 75.1684 653.761 80.1418 647.655 80.1418Z" fill="black"/>
</g>
</g>
<defs>
<clipPath id="clip0_9_72819">
<rect width="661" height="173" fill="white"/>
</clipPath>
<clipPath id="clip1_9_72819">
<rect width="661" height="173" fill="white"/>
</clipPath>
</defs>
</svg>
