<svg width="72" height="72" viewBox="0 0 72 72" fill="none" xmlns="http://www.w3.org/2000/svg">
<path d="M36 71C55.33 71 71 55.33 71 36C71 16.67 55.33 1 36 1C16.67 1 1 16.67 1 36C1 55.33 16.67 71 36 71Z" stroke="#59432D" stroke-width="2"/>
<mask id="mask0_15715_333" style="mask-type:luminance" maskUnits="userSpaceOnUse" x="26" y="11" width="20" height="57">
<path d="M45.8725 11.769H26.1289V67.4101H45.8725V11.769Z" fill="white"/>
</mask>
<g mask="url(#mask0_15715_333)">
<path d="M26.1764 22.8494C25.9756 24.9619 26.326 28.1284 28.9114 30.5432C31.4969 32.958 35.4285 33.308 35.4285 33.308L35.9756 32.755L36.5226 32.2021C36.5226 32.2021 36.1764 28.2277 33.7876 25.6141C31.3987 23.0005 28.2662 22.6506 26.1764 22.8494Z" fill="#59432D"/>
<path d="M36.0003 11.769C34.3807 13.1212 32.4149 15.6094 32.5517 19.1648C32.6927 22.7201 35.2269 25.7786 35.2269 25.7786H36.7738C36.7738 25.7786 39.308 22.7201 39.4491 19.1648C39.5901 15.6094 37.62 13.1212 36.0003 11.769Z" fill="#59432D"/>
<path d="M45.8285 22.8498C46.0294 24.9622 45.679 28.1287 43.0935 30.5437C40.5081 32.9585 36.5764 33.3084 36.5764 33.3084L36.0294 32.7555L35.4824 32.2025C35.4824 32.2025 35.8286 28.2282 38.2174 25.6146C40.6063 23.001 43.7388 22.6468 45.8285 22.8498Z" fill="#59432D"/>
<path d="M26.1764 32.5781C25.9756 34.6905 26.326 37.857 28.9114 40.2719C31.4969 42.6868 35.4285 43.0367 35.4285 43.0367L35.9756 42.4837L36.5226 41.9308C36.5226 41.9308 36.1764 37.9564 33.7876 35.3428C31.3987 32.7293 28.2662 32.375 26.1764 32.5781Z" fill="#59432D"/>
<path d="M45.8285 32.5783C46.0294 34.6908 45.679 37.8573 43.0935 40.2721C40.5081 42.687 36.5764 43.0369 36.5764 43.0369L36.0294 42.4839L35.4824 41.931C35.4824 41.931 35.8286 37.9566 38.2174 35.343C40.6063 32.7295 43.7388 32.3752 45.8285 32.5783Z" fill="#59432D"/>
<path d="M26.1764 43.0844C25.9756 45.1968 26.326 48.3634 28.9114 50.7783C31.4969 53.1931 35.4285 53.543 35.4285 53.543L35.9756 52.9901L36.5226 52.4371C36.5226 52.4371 36.1764 48.4627 33.7876 45.8492C31.3987 43.2356 28.2662 42.8814 26.1764 43.0844Z" fill="#59432D"/>
<path d="M45.8285 43.0841C46.0294 45.1966 45.679 48.3631 43.0935 50.778C40.5081 53.1928 36.5764 53.5428 36.5764 53.5428L36.0294 52.9898L35.4824 52.4368C35.4824 52.4368 35.8286 48.4625 38.2174 45.849C40.6063 43.2354 43.7388 42.8811 45.8285 43.0841Z" fill="#59432D"/>
<path d="M36.0012 26.1279V59.3331" stroke="#59432D" stroke-width="3" stroke-miterlimit="10" stroke-linecap="round"/>
</g>
<path d="M11.3066 11.3828L17.6525 17.7287" stroke="#59432D" stroke-width="2" stroke-linecap="round"/>
<path d="M53.8224 53.8997L60.1683 60.2455" stroke="#59432D" stroke-width="2" stroke-linecap="round"/>
</svg>
