<svg width="72" height="72" viewBox="0 0 72 72" fill="none" xmlns="http://www.w3.org/2000/svg">
<path d="M36 71C55.33 71 71 55.33 71 36C71 16.67 55.33 1 36 1C16.67 1 1 16.67 1 36C1 55.33 16.67 71 36 71Z" stroke="#59432D" stroke-width="2"/>
<mask id="mask0_15715_351" style="mask-type:luminance" maskUnits="userSpaceOnUse" x="19" y="14" width="33" height="44">
<path d="M51.2569 14.4614H19.8467V57.5383H51.2569V14.4614Z" fill="white"/>
</mask>
<g mask="url(#mask0_15715_351)">
<path d="M51.1968 23.7945C49.0541 24.988 46.7728 25.541 44.2704 25.6902C44.7199 26.6071 45.0983 27.484 45.5666 28.3099C46.518 29.991 47.5519 31.632 48.4884 33.3202C49.6422 35.4015 50.6349 37.5592 51.0207 39.9133C51.8486 45 50.5112 49.4718 46.7016 53.1031C40.3409 59.1686 30.1105 58.983 23.9633 52.7174C20.959 49.6574 19.6254 45.9679 19.8765 41.7326C20.0525 38.7453 21.1651 36.0491 22.5735 33.4548C23.3602 32.0067 24.2517 30.6132 25.0909 29.1868C26.4769 26.8291 27.3946 24.2857 28.2413 21.7096C28.5372 20.8145 28.8969 19.894 29.4475 19.1299C30.5488 17.5944 32.2158 16.8266 34.0738 16.5138C34.8268 16.3864 35.4786 16.1644 36.1454 15.7788C39.9401 13.5847 43.806 14.1523 46.9863 17.3397C48.833 19.1917 50.1554 21.3785 51.193 23.7945H51.1968ZM22.0266 41.8054C21.9967 44.1631 22.5549 46.3572 23.7386 48.3803C26.6717 53.3869 32.2233 55.9194 38.0932 54.8532C45.544 53.4997 50.309 46.5282 48.833 39.0582C48.3648 36.6896 47.3683 34.4955 46.106 32.4397C44.1955 29.3396 42.6896 26.0868 41.7082 22.5974C41.5321 21.9643 41.2137 21.3275 40.8128 20.7999C38.6252 17.9328 33.8041 17.5908 31.0021 20.0468C30.0094 20.9164 29.5561 22.0517 29.2077 23.2451C28.406 26.0067 27.3235 28.6447 25.7989 31.1116C25.1545 32.1523 24.5627 33.2329 24.0196 34.3281C22.8433 36.6931 21.9742 39.1492 22.0266 41.7981V41.8054Z" fill="#59432D"/>
<path d="M43.3176 42.6999C43.2389 45.396 42.2725 48.0486 39.7589 49.9807C36.7958 52.2548 32.9337 51.8072 30.3078 48.94C26.9176 45.2396 27.1423 38.763 30.7835 35.2954C33.7091 32.5083 38.0245 32.6575 40.7928 35.6593C42.5497 37.5622 43.2951 39.8363 43.3176 42.6963V42.6999ZM29.3488 42.3906C29.4199 45.2432 30.6374 47.5283 32.9861 49.242C33.4955 49.6132 34.0012 49.5659 34.3047 49.1547C34.6306 48.7144 34.5145 48.256 33.9826 47.8812C31.6563 46.2584 30.5699 43.3112 31.3154 40.6186C31.7499 39.0358 32.6677 37.766 34.0088 36.7836C34.3422 36.5398 34.5707 36.2596 34.4545 35.8375C34.2822 35.1935 33.6005 34.9898 33.0048 35.43C30.6374 37.1765 29.4124 39.4906 29.3525 42.3906H29.3488Z" fill="#59432D"/>
</g>
</svg>
