<svg width="72" height="72" viewBox="0 0 72 72" fill="none" xmlns="http://www.w3.org/2000/svg">
<path d="M36 71C55.33 71 71 55.33 71 36C71 16.67 55.33 1 36 1C16.67 1 1 16.67 1 36C1 55.33 16.67 71 36 71Z" stroke="#59432D" stroke-width="2"/>
<path fill-rule="evenodd" clip-rule="evenodd" d="M35.3155 50.2349V53.1196C35.3155 53.8766 35.0149 54.6023 34.4795 55.1368C33.9449 55.6723 33.2193 55.9728 32.4622 55.9728C31.9372 55.9728 31.5111 56.3989 31.5111 56.9239C31.5111 57.4489 31.9372 57.875 32.4622 57.875C33.7233 57.875 34.9331 57.3738 35.8252 56.4826C36.7164 55.5905 37.2176 54.3807 37.2176 53.1196V50.2349C44.6485 49.7451 50.5328 43.5545 50.5328 36C50.5328 31.3749 48.5166 26.9409 46.0085 23.3163C42.481 18.2175 38.0707 14.767 38.0232 14.7299C36.9913 13.9234 35.5418 13.9234 34.5099 14.7299C34.4633 14.766 30.0531 18.2166 26.5246 23.3163C24.0165 26.9409 22.0002 31.3749 22.0002 36C22.0002 43.5545 27.8846 49.7451 35.3155 50.2349ZM37.2176 48.328C43.5975 47.842 48.6307 42.5035 48.6307 36C48.6307 31.7639 46.7409 27.7179 44.444 24.3987C41.0714 19.5224 36.8524 16.2298 36.8524 16.2298V16.2288C36.5081 15.9597 36.025 15.9597 35.6807 16.2288V16.2298C35.6807 16.2298 31.4617 19.5224 28.0891 24.3987C25.7922 27.7179 23.9024 31.7639 23.9024 36C23.9024 42.5035 28.9356 47.842 35.3155 48.328V42.1003L29.8876 36.6724C29.5167 36.3015 29.5167 35.6985 29.8876 35.3276C30.2585 34.9567 30.8615 34.9567 31.2324 35.3276L35.3155 39.4106V34.4916L29.8876 29.0637C29.5167 28.6928 29.5167 28.0898 29.8876 27.7189C30.2585 27.348 30.8615 27.348 31.2324 27.7189L35.3155 31.8019V24.587C35.3155 24.062 35.7415 23.6359 36.2665 23.6359C36.7915 23.6359 37.2176 24.062 37.2176 24.587V31.8019L41.3006 27.7189C41.6716 27.348 42.2746 27.348 42.6455 27.7189C43.0164 28.0898 43.0164 28.6928 42.6455 29.0637L37.2176 34.4916V39.4106L41.3006 35.3276C41.6716 34.9567 42.2746 34.9567 42.6455 35.3276C43.0164 35.6985 43.0164 36.3015 42.6455 36.6724L37.2176 42.1003V48.328Z" fill="#59432D"/>
</svg>
