<svg width="40" height="40" viewBox="0 0 40 40" fill="none" xmlns="http://www.w3.org/2000/svg">
<rect width="40" height="40" rx="20" fill="#59432D"/>
<path d="M18.7741 29.9729C18.5699 29.9729 18.387 29.952 18.1828 29.91C15.3694 29.3467 13.3305 27.4057 13.0451 24.3791C12.7802 21.6658 13.6972 19.1826 15.39 17.1165C16.2258 16.094 17.0418 15.1756 17.6939 14.028C18.2237 13.0885 18.6519 12.129 18.7946 11.0435C18.8151 10.7933 18.8758 10.1041 18.8963 10C18.998 10.042 20.4456 11.5859 20.9148 12.4212C21.9548 14.3202 22.1787 15.4267 22.1582 17.5758C22.1582 17.7009 22.1377 17.847 22.1582 17.9721C22.1787 18.5774 22.5658 19.3498 23.3409 19.4329C23.9118 19.4958 24.4014 19.2448 24.6048 18.6815C24.8698 17.9721 25.0125 16.9706 25.0535 16.8866C26.7455 19.558 27.7445 23.0429 26.3174 26.2775C25.4816 28.1555 23.8298 29.3661 21.8523 29.8673C20.8131 30.0569 19.3859 29.9939 18.7741 29.9729Z" fill="white"/>
</svg>
