<svg width="72" height="72" viewBox="0 0 72 72" fill="none" xmlns="http://www.w3.org/2000/svg">
<path d="M36 71C55.33 71 71 55.33 71 36C71 16.67 55.33 1 36 1C16.67 1 1 16.67 1 36C1 55.33 16.67 71 36 71Z" stroke="#59432D" stroke-width="2"/>
<mask id="mask0_15715_322" style="mask-type:luminance" maskUnits="userSpaceOnUse" x="28" y="13" width="16" height="45">
<path d="M43.8748 13.25H28.1248V57.875H43.8748V13.25Z" fill="white"/>
</mask>
<g mask="url(#mask0_15715_322)">
<path d="M43.8748 15.8499C43.8748 14.4141 42.7039 13.25 41.26 13.25H30.7395C29.2956 13.25 28.1248 14.4197 28.1248 15.8499C28.1248 17.0085 28.8941 17.9786 29.9478 18.3168V51.9213C29.9478 55.203 32.6351 57.875 35.9356 57.875C39.2362 57.875 41.9234 55.203 41.9234 51.9213V18.3555C43.044 18.0617 43.8748 17.0528 43.8748 15.8499ZM35.9356 56.212C33.555 56.212 31.6204 54.2884 31.6204 51.9213V18.4498H40.2565V23.5387H35.5844C35.1217 23.5387 34.7482 23.9101 34.7482 24.3702C34.7482 24.8304 35.1217 25.2017 35.5844 25.2017H40.2565V29.182H37.4911C37.0284 29.182 36.6549 29.5533 36.6549 30.0135C36.6549 30.4736 37.0284 30.845 37.4911 30.845H40.2565V34.8252H35.5844C35.1217 34.8252 34.7482 35.1967 34.7482 35.6567C34.7482 36.1168 35.1217 36.4882 35.5844 36.4882H40.2565V40.4685H37.4911C37.0284 40.4685 36.6549 40.8399 36.6549 41.3C36.6549 41.7601 37.0284 42.1316 37.4911 42.1316H40.2565V46.1118H35.5844C35.1217 46.1118 34.7482 46.4831 34.7482 46.9433C34.7482 47.4034 35.1217 47.7748 35.5844 47.7748H40.2565V51.9213C40.2565 54.2884 38.3218 56.212 35.9412 56.212H35.9356ZM41.26 16.7867H30.7395C30.2211 16.7867 29.7973 16.3654 29.7973 15.8499C29.7973 15.3343 30.2211 14.913 30.7395 14.913H41.2544C41.7729 14.913 42.1966 15.3343 42.1966 15.8499C42.1966 16.3654 41.7729 16.7867 41.2544 16.7867H41.26Z" fill="#59432D"/>
</g>
<path d="M11.3066 11.3828L17.6525 17.7287" stroke="#59432D" stroke-width="2" stroke-linecap="round"/>
<path d="M53.8223 53.8994L60.1681 60.2453" stroke="#59432D" stroke-width="2" stroke-linecap="round"/>
</svg>
