<svg width="1440" height="80" viewBox="0 0 1440 80" fill="none" xmlns="http://www.w3.org/2000/svg">
<path d="M1440 3.66987C1433.43 5.58233 1427.14 8.19259 1421.26 11.449C1392.12 27.6532 1357.06 27.6532 1327.92 11.449C1314.8 4.16091 1299.71 0 1283.67 0C1267.62 0 1252.54 4.16091 1239.42 11.449C1210.28 27.6532 1175.21 27.6532 1146.07 11.449C1132.95 4.16091 1117.87 0 1101.82 0C1085.78 0 1070.69 4.16091 1057.57 11.449C1028.43 27.6532 993.366 27.6532 964.227 11.449C951.106 4.16091 936.019 0 919.975 0C903.93 0 888.843 4.16091 875.723 11.449C846.584 27.6532 811.519 27.6532 782.38 11.449C769.259 4.16091 754.172 0 738.128 0C722.083 0 706.97 4.16091 693.876 11.449C664.737 27.6532 629.672 27.6532 600.533 11.449C587.412 4.16091 572.325 0 556.281 0C540.236 0 525.149 4.16091 512.029 11.449C482.89 27.6532 447.825 27.6532 418.686 11.449C405.565 4.16091 390.478 0 374.434 0C358.389 0 343.302 4.16091 330.182 11.449C301.043 27.6532 265.978 27.6532 236.839 11.449C223.718 4.16091 208.631 0 192.587 0C176.542 0 161.455 4.16091 148.335 11.449C119.196 27.6532 84.1305 27.6532 54.9915 11.449C41.7935 4.16091 26.7064 0 10.6619 0C7.06479 0 3.49358 0.232597 0 0.646104V80H1440V3.66987Z" fill="#D4E7ED"/>
</svg>
