<svg width="40" height="40" viewBox="0 0 40 40" fill="none" xmlns="http://www.w3.org/2000/svg">
<rect width="40" height="40" rx="20" fill="#FAE9C8"/>
<path d="M22.3389 18.7046C21.707 19.2733 20.9803 19.842 20.2535 20.2844C19.7796 20.6003 19.3373 20.8531 18.8633 21.2322C18.5158 21.5166 18.2314 21.801 17.8522 22.0853C16.9991 22.9068 16.2092 23.8547 15.6721 24.8658C14.977 26.1296 14.4399 27.5198 14.3451 29.0048C14.3451 29.068 14.3767 29.1312 14.3135 29.1628C14.4083 29.226 14.4083 29.226 14.4715 29.2576C18.0102 31.3429 23.3184 28.8785 26.3832 23.8231C28.9741 19.3997 29.0689 14.5023 26.7939 11.8483C26.4148 13.2701 25.7829 14.5971 24.9614 15.8293C24.2662 16.872 23.35 17.8515 22.3389 18.7046Z" fill="white"/>
<path d="M13.2391 28.2149C13.6182 26.7931 14.2186 25.4028 15.0085 24.2022C15.672 23.1595 16.4303 22.1485 17.2834 21.2638C17.7889 20.7267 18.2945 20.1895 18.8948 19.7788C19.2424 19.4944 19.6215 19.3364 20.0007 19.0521C20.7906 18.5149 21.5805 17.9462 22.3072 17.2195C23.2235 16.398 24.045 15.3553 24.6453 14.2495C24.9297 13.6808 25.1824 13.1436 25.372 12.4801C25.4352 12.1958 25.53 11.8798 25.5932 11.5322C25.6248 11.3743 25.6564 11.1847 25.6248 11.0267C25.6248 11.0267 25.6564 10.8687 25.6564 10.8055L25.5616 10.7423C22.0228 8.65702 16.7147 11.1215 13.6498 16.1768C10.9642 20.6003 10.9642 25.5608 13.2391 28.2149Z" fill="white"/>
</svg>
